STARTFONT 2.3
FONT -FontForge-Courgette-Book-R-Normal--18-180-72-72-P-93-ISO10646-1
SIZE 18 72 72  4
FONTBOUNDINGBOX 24 24 -4 -6
COMMENT "Generated by fontforge, http://fontforge.sourceforge.net"
COMMENT "Copyright (c) 2012, Sorkin Type Co (www.sorkintype.com) with Reserved Font Name "Courgette"."
STARTPROPERTIES 41
FOUNDRY "FontForge"
FAMILY_NAME "Courgette"
WEIGHT_NAME "Book"
SLANT "R"
SETWIDTH_NAME "Normal"
ADD_STYLE_NAME ""
PIXEL_SIZE 18
POINT_SIZE 180
RESOLUTION_X 72
RESOLUTION_Y 72
SPACING "P"
AVERAGE_WIDTH 93
CHARSET_REGISTRY "ISO10646"
CHARSET_ENCODING "1"
FONTNAME_REGISTRY ""
CHARSET_COLLECTIONS "ISO8859-2 ISO8859-9 ISO8859-4 ISO10646-1"
BITS_PER_PIXEL 4
FONT_NAME "Courgette-Regular"
FACE_NAME "Courgette Regular"
COPYRIGHT "Copyright (c) 2012, Sorkin Type Co (www.sorkintype.com) with Reserved Font Name "Courgette"."
FONT_VERSION "1.002"
FONT_ASCENT 14
FONT_DESCENT 4
UNDERLINE_POSITION -2
UNDERLINE_THICKNESS 1
X_HEIGHT 8
CAP_HEIGHT 13
DEFAULT_CHAR 1
RAW_ASCENT 799
RAW_DESCENT 200
NORM_SPACE 6
RELATIVE_WEIGHT 40
RELATIVE_SETWIDTH 50
SUPERSCRIPT_X 0
SUPERSCRIPT_Y 8
SUPERSCRIPT_SIZE 11
SUBSCRIPT_X 0
SUBSCRIPT_Y 2
SUBSCRIPT_SIZE 11
AVG_LOWERCASE_WIDTH 89
AVG_UPPERCASE_WIDTH 105
ENDPROPERTIES
CHARS 407
STARTCHAR .null.dup1
ENCODING 0
SWIDTH 0 0
DWIDTH 0 0
BBX 1 1 0 0
BITMAP
00
ENDCHAR
STARTCHAR uni0001
ENCODING 1
SWIDTH 0 0
DWIDTH 0 0
BBX 1 1 0 0
BITMAP
00
ENDCHAR
STARTCHAR uni0002
ENCODING 2
SWIDTH 0 0
DWIDTH 0 0
BBX 1 1 0 0
BITMAP
00
ENDCHAR
STARTCHAR uni0003
ENCODING 3
SWIDTH 0 0
DWIDTH 0 0
BBX 1 1 0 0
BITMAP
00
ENDCHAR
STARTCHAR uni0004
ENCODING 4
SWIDTH 0 0
DWIDTH 0 0
BBX 1 1 0 0
BITMAP
00
ENDCHAR
STARTCHAR uni0005
ENCODING 5
SWIDTH 0 0
DWIDTH 0 0
BBX 1 1 0 0
BITMAP
00
ENDCHAR
STARTCHAR uni0006
ENCODING 6
SWIDTH 0 0
DWIDTH 0 0
BBX 1 1 0 0
BITMAP
00
ENDCHAR
STARTCHAR uni0007
ENCODING 7
SWIDTH 0 0
DWIDTH 0 0
BBX 1 1 0 0
BITMAP
00
ENDCHAR
STARTCHAR uni0008
ENCODING 8
SWIDTH 0 0
DWIDTH 0 0
BBX 1 1 0 0
BITMAP
00
ENDCHAR
STARTCHAR uni0009
ENCODING 9
SWIDTH 0 0
DWIDTH 0 0
BBX 1 1 0 0
BITMAP
00
ENDCHAR
STARTCHAR nonmarkingreturn
ENCODING 13
SWIDTH 0 0
DWIDTH 0 0
BBX 1 1 0 0
BITMAP
00
ENDCHAR
STARTCHAR uni0015
ENCODING 21
SWIDTH 0 0
DWIDTH 0 0
BBX 1 1 0 0
BITMAP
00
ENDCHAR
STARTCHAR uni0016
ENCODING 22
SWIDTH 0 0
DWIDTH 0 0
BBX 1 1 0 0
BITMAP
00
ENDCHAR
STARTCHAR uni0017
ENCODING 23
SWIDTH 0 0
DWIDTH 0 0
BBX 1 1 0 0
BITMAP
00
ENDCHAR
STARTCHAR uni0018
ENCODING 24
SWIDTH 0 0
DWIDTH 0 0
BBX 1 1 0 0
BITMAP
00
ENDCHAR
STARTCHAR uni0019
ENCODING 25
SWIDTH 0 0
DWIDTH 0 0
BBX 1 1 0 0
BITMAP
00
ENDCHAR
STARTCHAR space
ENCODING 32
SWIDTH 307 0
DWIDTH 6 0
BBX 1 1 0 0
BITMAP
00
ENDCHAR
STARTCHAR exclam
ENCODING 33
SWIDTH 417 0
DWIDTH 8 0
BBX 8 14 1 0
BITMAP
00002CE2
0000BFA0
0005FE20
000BF800
002FE100
007F8000
00BF2000
00EA0000
01F40000
01D00000
00100000
4ED20000
8FF30000
19700000
ENDCHAR
STARTCHAR quotedbl
ENCODING 34
SWIDTH 437 0
DWIDTH 8 0
BBX 8 5 2 10
BITMAP
03730571
1EF54FE1
5F90AF40
7E10CA00
6600A200
ENDCHAR
STARTCHAR numbersign
ENCODING 35
SWIDTH 725 0
DWIDTH 13 0
BBX 12 14 1 0
BITMAP
000002C607D0
000008F30EB0
00000CD05F50
00002F709E10
00007F20EA00
09FFFFFFFFF9
0003F50AC000
0006F10D9000
0009D01F5000
AEEFFEEFEE70
116E21D81100
00AA02F30000
00E507D00000
04C00B500000
ENDCHAR
STARTCHAR dollar
ENCODING 36
SWIDTH 545 0
DWIDTH 10 0
BBX 10 19 1 -3
BITMAP
00000004D4
0000000D90
00007DFF50
001BE418F2
008F4003F6
01ED0006F7
04FB002EF4
05FD00DFB0
03FF408910
00CFD00000
004FF70000
0007FE0000
5A00DF2000
EC009F1000
DF42D80000
3DFD700000
0C90000000
1F30000000
0600000000
ENDCHAR
STARTCHAR percent
ENCODING 37
SWIDTH 876 0
DWIDTH 16 0
BBX 14 14 1 0
BITMAP
007DE900000AB0
07F76F40009F30
2FC05F6006F700
8F508F504FA000
9F20DE12ED1000
7F28F60CE20000
1BFE609F400000
000006F705CD80
00003FA06F86F4
0001EC02FC04F7
000CE207F608F5
009F3009F20DE1
06F50006F48F60
0D700001AED500
ENDCHAR
STARTCHAR ampersand
ENCODING 38
SWIDTH 563 0
DWIDTH 10 0
BBX 11 14 0 0
BITMAP
00003ADEC300
0007FD415E10
005FD1005F30
00DF4003EF10
01FD005FF700
01FC002A7000
008FAB300000
006FFB400000
05FE40200200
1EF409FEEB10
4FB001DC0000
5F9000E70000
2EE43BC00000
04CED8100000
ENDCHAR
STARTCHAR quotesingle
ENCODING 39
SWIDTH 231 0
DWIDTH 4 0
BBX 4 5 2 10
BITMAP
0373
1EF5
5F90
7E10
6600
ENDCHAR
STARTCHAR parenleft
ENCODING 40
SWIDTH 478 0
DWIDTH 9 0
BBX 9 21 2 -4
BITMAP
0000000360
0000019E40
00001BD200
0000BE2000
0009F30000
005F800000
01DD100000
06F7000000
0DE1000000
3FA0000000
8F60000000
CF30000000
EF10000000
FF00000000
FE00000000
EF00000000
BF20000000
7F50000000
1FB0000000
08F4000000
009D000000
ENDCHAR
STARTCHAR parenright
ENCODING 41
SWIDTH 478 0
DWIDTH 9 0
BBX 10 21 -2 -4
BITMAP
0000063000
000009E300
000000DD00
0000006F50
0000002FA0
0000000EE0
0000000DF1
0000000DF1
0000000EF1
0000000FE0
0000003FB0
0000007F70
000000BF20
000002FB00
000009F400
00003FA000
0000CE2000
0008F50000
006F600000
07F6000000
8B30000000
ENDCHAR
STARTCHAR asterisk
ENCODING 42
SWIDTH 518 0
DWIDTH 9 0
BBX 7 7 2 7
BITMAP
0007E600
050EE100
3F4F6870
09EFEDA0
03FF8000
3E56F400
5400C600
ENDCHAR
STARTCHAR plus
ENCODING 43
SWIDTH 617 0
DWIDTH 11 0
BBX 10 9 1 2
BITMAP
0000B30000
0000F40000
0000F40000
0000F40000
8EEEFEEED1
1111F51110
0000F40000
0000F40000
0000D20000
ENDCHAR
STARTCHAR comma
ENCODING 44
SWIDTH 312 0
DWIDTH 6 0
BBX 4 5 0 -3
BITMAP
1CD2
1EF5
0AF2
2E70
B700
ENDCHAR
STARTCHAR hyphen
ENCODING 45
SWIDTH 452 0
DWIDTH 8 0
BBX 6 2 1 4
BITMAP
4DEEEA
011110
ENDCHAR
STARTCHAR period
ENCODING 46
SWIDTH 270 0
DWIDTH 5 0
BBX 4 3 0 0
BITMAP
4ED2
8FF3
1970
ENDCHAR
STARTCHAR slash
ENCODING 47
SWIDTH 405 0
DWIDTH 7 0
BBX 13 19 -2 -3
BITMAP
00000000002D40
0000000000CD00
0000000006F400
000000001EB000
000000008F2000
00000002F90000
0000000AE10000
0000003F700000
000000CD000000
000005F5000000
00000DB0000000
00007F30000000
0001E900000000
0009E200000000
002F7000000000
00BD1000000000
04F50000000000
0CC00000000000
4D200000000000
ENDCHAR
STARTCHAR zero
ENCODING 48
SWIDTH 621 0
DWIDTH 11 0
BBX 11 14 1 0
BITMAP
000007DFC300
0001CE51CD00
001CF4008F20
009F80009F30
02FD1000BF20
0AF70000EF00
1FF10004FC00
5FA0000AF700
9F60001FF200
BF20008F9000
CF0002FE1000
BE000CF40000
7F42BF600000
09EEA3000000
ENDCHAR
STARTCHAR one
ENCODING 49
SWIDTH 405 0
DWIDTH 7 0
BBX 7 14 1 0
BITMAP
0001BD20
003DFF40
07FEEF20
0462ED00
0004F900
0009F400
000ED000
005F7000
00AF1000
01F90000
07F20000
0DA00000
4E200000
95000000
ENDCHAR
STARTCHAR two
ENCODING 50
SWIDTH 524 0
DWIDTH 9 0
BBX 10 14 0 0
BITMAP
00006CFD50
0009F718F3
004FA002F7
008F7004F8
008FD00BF5
0019507FD0
000005FF30
00004FF500
0004FE4000
003EE30000
02EC200000
1CB1000400
8FCDDDEF00
AA35AEE600
ENDCHAR
STARTCHAR three
ENCODING 51
SWIDTH 537 0
DWIDTH 10 0
BBX 10 14 0 0
BITMAP
00004BEE90
0006F924F8
002FC000EC
007F8001FD
008FE006F9
0019603EF3
000017FF60
0001EFE600
00028CF400
000003FB00
09D104FA00
3FB00AF500
2FA18FA000
05DEC60000
ENDCHAR
STARTCHAR four
ENCODING 52
SWIDTH 529 0
DWIDTH 10 0
BBX 9 14 1 0
BITMAP
001E700000
003FD00000
006FA00000
00BF503200
02FD00BE10
09F500EE00
2FB003FA00
9F2008F400
EC000DFE30
7FFDDF5310
0110DA0000
0005F30000
000C900000
003C100000
ENDCHAR
STARTCHAR five
ENCODING 53
SWIDTH 540 0
DWIDTH 10 0
BBX 11 14 0 0
BITMAP
00006EB88AC0
0000CDCFFF90
0003F8026500
0009F2000000
001EB0000000
007FCEE91000
00DF618F8000
0064003FC000
0000004FC000
0130008F9000
2EC000DF3000
5F6008F90000
2F828FA00000
05DEC6000000
ENDCHAR
STARTCHAR six
ENCODING 54
SWIDTH 554 0
DWIDTH 10 0
BBX 10 14 1 0
BITMAP
00002AEE80
0004EC34F3
003ED108F4
00DF306FD0
07F9001620
0DF3000000
3FD4BDA200
8FEC44FB00
AFE100CF00
BF8000DF00
BF4003FC00
9F200BF500
3F72AF7000
05DEB40000
ENDCHAR
STARTCHAR seven
ENCODING 55
SWIDTH 473 0
DWIDTH 9 0
BBX 8 14 2 0
BITMAP
AEDDDEE9
4DFC86F8
00001DC0
0000BE20
0008F600
003FB000
00DE2000
07F70000
1EE10000
7F800000
CF300000
FF000000
BD000000
01000000
ENDCHAR
STARTCHAR eight
ENCODING 56
SWIDTH 524 0
DWIDTH 9 0
BBX 10 14 0 0
BITMAP
00004CFD70
0004FA6CF7
000DB003FC
002F8001FD
003FA003FA
001FE10AF3
000BFAAF50
0003FFC200
004DEFC000
05F80CF300
0EC004F600
1FB002F500
0DE419C000
02BED91000
ENDCHAR
STARTCHAR nine
ENCODING 57
SWIDTH 554 0
DWIDTH 10 0
BBX 10 14 0 0
BITMAP
000029DE90
0003EC24F8
001DE100ED
008F7000FE
00DF3002FD
00FE0007FB
00FE001DF8
00CF32BFF4
003DFE8EE0
0000103F80
014000AE10
0DE005F500
1FB16E6000
07EEB40000
ENDCHAR
STARTCHAR colon
ENCODING 58
SWIDTH 312 0
DWIDTH 6 0
BBX 5 9 0 0
BITMAP
004720
00EFC0
00CF70
000200
000000
000000
2ED300
6FF500
188000
ENDCHAR
STARTCHAR semicolon
ENCODING 59
SWIDTH 312 0
DWIDTH 6 0
BBX 5 11 0 -3
BITMAP
00AE80
00EFC0
005A30
000000
000000
000000
1CD200
1EF500
0AF200
2E7000
B70000
ENDCHAR
STARTCHAR less
ENCODING 60
SWIDTH 637 0
DWIDTH 11 0
BBX 10 10 1 1
BITMAP
00000005D2
000003BF80
00019FC300
007EE60000
4DF9100000
7FE5000000
02BFB20000
0004DF8100
000007ED50
00000019E2
ENDCHAR
STARTCHAR equal
ENCODING 61
SWIDTH 617 0
DWIDTH 11 0
BBX 10 5 1 4
BITMAP
5FFFFFFFF3
0000000000
0000000000
7EEEEEEED1
0111111110
ENDCHAR
STARTCHAR greater
ENCODING 62
SWIDTH 606 0
DWIDTH 11 0
BBX 10 10 1 1
BITMAP
8D50000000
19FB300000
004CF91000
00007EE700
000002AFD2
000004CF91
0001AFB300
007ED50000
3CE7000000
9910000000
ENDCHAR
STARTCHAR question
ENCODING 63
SWIDTH 516 0
DWIDTH 9 0
BBX 9 14 1 0
BITMAP
0002AEE800
001DD32E70
006F700DA0
006F904F90
001723EF40
00005EF800
0007FF6000
005FE30000
00DD200000
00F4000000
0030000000
3CA1000000
8FF4000000
3EB0000000
ENDCHAR
STARTCHAR at
ENCODING 64
SWIDTH 905 0
DWIDTH 16 0
BBX 16 15 0 -3
BITMAP
00000038BDDC9400
00001AD74224AF90
0003D700000005F6
002E6006CC4C60BC
00DA00BE55FF408E
06F308F601FC009D
0BD00EE008F500D9
0FB03FA02EE007E2
1F903FA1BCC07F40
1FB00AFC37FEB300
0DE1001000100000
06F9000000000000
00AFA30014400000
0005BFFED9200000
0000001000000000
ENDCHAR
STARTCHAR A
ENCODING 65
SWIDTH 615 0
DWIDTH 11 0
BBX 14 14 -2 0
BITMAP
00000000004BE9
0000000008EBF7
000000009E3AF2
00000006E31FC0
0000003F607F70
000000CC00CF20
000006F302FC00
00005EFCEFFFF2
0008EE999EF950
0002F7001FE000
000AE1004FB000
005F60006F8000
05EB00006F8210
4EA100001BEA10
ENDCHAR
STARTCHAR B
ENCODING 66
SWIDTH 551 0
DWIDTH 10 0
BBX 11 14 0 0
BITMAP
0028BEFEB500
05FF93129F40
0184A4002FA0
0009FA003FC0
003FF2008F80
00AF9005FD10
01FE13AFD200
07FFFFFB1000
0BF732AF5000
0ED0002FB000
1F90004F9000
2F7000CF4000
0EB25CF60000
05DFD9200000
ENDCHAR
STARTCHAR C
ENCODING 67
SWIDTH 533 0
DWIDTH 10 0
BBX 11 14 0 0
BITMAP
0000018DEB10
00003ED51BA0
0003EE200BD0
001DF4004FC0
009F9003EF60
02FF200CFB00
07FA00026000
0CF500000000
0FF200000000
1FF000000000
1FF000000000
0EF200061000
07F913BF2000
007DFEA30000
ENDCHAR
STARTCHAR D
ENCODING 68
SWIDTH 630 0
DWIDTH 11 0
BBX 12 14 0 0
BITMAP
005ADEFDA300
01EF83129F70
002245000AF3
0003FE1005F8
000BF70005FA
003FE10006F9
009F80000AF6
01EF20001FF1
05FC00009F90
0AF60004FE10
0EF2002EF400
1FD003EF5000
1FB28FD30000
05DEC6000000
ENDCHAR
STARTCHAR E
ENCODING 69
SWIDTH 509 0
DWIDTH 9 0
BBX 11 14 0 0
BITMAP
000017CED900
0002DF921E60
001DF6003F70
007FA004EF20
00CF302FF700
00EF00064000
00AF21000000
001DFFA00000
00AFE7200000
09FD20000000
1FF300010000
4FC0007C0000
1EE229F70000
03CEEB400000
ENDCHAR
STARTCHAR F
ENCODING 70
SWIDTH 518 0
DWIDTH 9 0
BBX 12 14 0 0
BITMAP
02BEEB740091
0CFFDEFFFE90
0EC109F21100
04201FB00000
00007F700000
0000CF200000
0002FFCC5000
006EFFFFC000
006EF5100000
003FD0000000
009F70000000
02FD10000000
0BF400000000
5E5000000000
ENDCHAR
STARTCHAR G
ENCODING 71
SWIDTH 598 0
DWIDTH 11 0
BBX 11 14 0 0
BITMAP
0000018DEB20
00002DE61AB0
0003EE300AE0
000DF5003FD0
008FA003EF70
01FF300BFC00
07FB00026100
0BF600120010
0EF202EFEF80
1FF0017FFB10
1FE0000F6000
0DF1005E1000
07F915E50000
007EEB400000
ENDCHAR
STARTCHAR H
ENCODING 72
SWIDTH 668 0
DWIDTH 12 0
BBX 14 14 -1 0
BITMAP
002CEF800002E6
00183FE00005F9
00002FD00009F5
00005FA0000DF1
00009F60003FB0
0000DF20008F60
0017FFCCDEFF80
003DF71005F600
000DF1000AF200
004FA0000EC000
00BF30004F8000
04FA00009F4000
1DE10000AF4300
7D3000005ED400
ENDCHAR
STARTCHAR I
ENCODING 73
SWIDTH 327 0
DWIDTH 6 0
BBX 8 14 -1 0
BITMAP
000AEE90
00065BF3
00000DF2
00001FF0
00004FC0
00008F80
0000DF30
0002FD00
0008F800
000DF200
005FA000
00CF2000
08F70000
1E800000
ENDCHAR
STARTCHAR J
ENCODING 74
SWIDTH 393 0
DWIDTH 7 0
BBX 11 19 -3 -5
BITMAP
000005BEEB20
0000AFD57F90
0000CC109F80
00000000CF50
00000001FF20
00000005FD00
0000000AF800
0000000EF300
0000005FD000
000000BF8000
000003FF2000
000009FA0000
00001EF30000
00009F900000
0003FE100000
000CF5000000
009F80000000
1AF900000000
DD6000000000
ENDCHAR
STARTCHAR K
ENCODING 75
SWIDTH 616 0
DWIDTH 11 0
BBX 13 14 -1 0
BITMAP
005DFC20008E30
00586F90007FA0
00007F80009F90
0000AF6001EF30
0000DF300AF700
0002FE009F8000
0007FA1AE50000
000BF8CC200000
002FFDF4000000
007FA3FE200000
00DF408FB00000
06FB001EF60000
3EE20005FE4000
AD3000006DE900
ENDCHAR
STARTCHAR L
ENCODING 76
SWIDTH 517 0
DWIDTH 9 0
BBX 12 14 -1 0
BITMAP
0000002AEC30
000001DD37D0
00000BF406F1
00004FB00CF1
0000BF509FA0
0003FE0AFE20
0008F80BD400
000DF3000000
004FC0000000
009F50000000
01ED00000000
07F402441000
3FDBEFFFE100
2EDA8668D400
ENDCHAR
STARTCHAR M
ENCODING 77
SWIDTH 931 0
DWIDTH 17 0
BBX 19 14 -2 0
BITMAP
0000000006DE20007EA0
000000008EEF1009EFA0
00000006E5FB006E9F50
0000003F68F602E7CF10
000000CC0DF10AC3FB00
000006F43FC03F48F600
00000DA07F80AB0DF200
00007F30AF42F32FD000
0001EA00DF29A06F9000
0008F200FE2F30AF5000
002F9001FC9A00DF2000
00CE1001FCE200EF0000
09F50001FF8000CF2300
AE700000AB00004DE800
ENDCHAR
STARTCHAR N
ENCODING 78
SWIDTH 708 0
DWIDTH 13 0
BBX 14 14 0 0
BITMAP
000006E9000BE4
00005FF90008FD
0001EDF70004FE
000AD7F60004FB
002F68F60007F5
009E07F7000CE1
01E906F9002F70
06F305FB009E10
0BE002FE01E600
1F9000EF37D000
4F6000AF7D6000
8F20005FED0000
9E00000CF80000
6C000003D50000
ENDCHAR
STARTCHAR O
ENCODING 79
SWIDTH 655 0
DWIDTH 12 0
BBX 12 14 1 0
BITMAP
000007CFD800
0002CF715F70
001DF5000DE0
00BF80000CF1
05FD00000DF1
0DF600002FE0
3FD000006FA0
8F900000CF50
BF400004FE00
DF10000BF600
DE00006FC000
BF0003ED2000
4F815ED20000
05DFD8100000
ENDCHAR
STARTCHAR P
ENCODING 80
SWIDTH 553 0
DWIDTH 10 0
BBX 13 14 -1 0
BITMAP
00005ADFEB5000
000BFE7217F700
001FD20000CF10
00031BB000CF20
00005FB001FE00
0000BF500AF900
0002FE009FD100
0008FA6DFB1000
000DFFDA400000
004FC000000000
00BF5000000000
03FC0000000000
1DE20000000000
7D300000000000
ENDCHAR
STARTCHAR Q
ENCODING 81
SWIDTH 655 0
DWIDTH 12 0
BBX 12 18 1 -4
BITMAP
000018DFD600
0004ED516F40
003ED2000FB0
01DF30000FD0
08F800002FD0
0EF100005FB0
4FA00000BF70
7F700003FE10
9F60000BF700
8F80006FC000
4FF203EE2000
06A14ED20000
0039FB100000
07FFFF800000
00015CFB2000
0000008FE504
00000004CFE9
000000000010
ENDCHAR
STARTCHAR R
ENCODING 82
SWIDTH 623 0
DWIDTH 11 0
BBX 13 15 -1 -1
BITMAP
00017BDFEB5000
000DFC5215F800
0007669000AF20
00001EE000AF40
00007F9001EF10
0000DF400BF900
0003FD03CFB100
0008FDBFE70000
000DFBFC100000
004FD0BF400000
00BF604FD00000
03FC000CF60000
1CF30004FE4100
6D4000006FF700
00000000001000
ENDCHAR
STARTCHAR S
ENCODING 83
SWIDTH 474 0
DWIDTH 9 0
BBX 10 14 0 0
BITMAP
00004CFD70
0007F813E6
003FA000CC
00AF4001EC
00EF2009F9
00FF308FE2
00CF902930
007FF30000
000CFD0000
0002EF5000
1B207F8000
8F303F6000
7F918C1000
09EE910000
ENDCHAR
STARTCHAR T
ENCODING 84
SWIDTH 471 0
DWIDTH 8 0
BBX 11 14 1 0
BITMAP
1AEEC8410740
9FFDDFFFEC10
CE204F911000
3500AF400000
0001EE000000
0005FB000000
0009F6000000
000EF2000000
003FC0000000
008F60000000
00DE10000000
05F800000000
1DD100000000
AC2000000000
ENDCHAR
STARTCHAR U
ENCODING 85
SWIDTH 624 0
DWIDTH 11 0
BBX 13 14 0 0
BITMAP
0007EB00004E40
0003FF0000BF40
0004FC0004FC00
0009F7000BF600
001EF1003FF100
007FA000BFB000
00DF4003FF6000
04FC000BFF2000
0BF6004FFC0000
1FE100CBF80000
6FA007B8F40000
9F603C1BF20000
9F73B20BF33000
2DE91004EE6000
ENDCHAR
STARTCHAR V
ENCODING 86
SWIDTH 587 0
DWIDTH 11 0
BBX 12 14 1 0
BITMAP
06CEB10007E7
4FFEF90005FE
0633FB0002FE
000BF50006FA
004FD0001DF3
00BF60009F90
03FD0006FC00
09F7004FD100
0EE103ED2000
3F903EC10000
7F52DC100000
8F4DB1000000
5FDC10000000
0BC100000000
ENDCHAR
STARTCHAR W
ENCODING 87
SWIDTH 941 0
DWIDTH 17 0
BBX 17 14 1 0
BITMAP
18DE90000000007E60
7FFEF600000000BFC0
1726F7000000006FE0
001EF30008E5004FE0
007FB001BFD1004FC0
00EF301CFF30006F90
06FB00AFFA0000AF40
0CF507FDF40000ED00
2FD03F7DF00006F700
6F71DA2FC0000DD000
9F38D13F90008F3000
BF3E304F9004F60000
9FC6001EC16E500000
2DA00005EE92000000
ENDCHAR
STARTCHAR X
ENCODING 88
SWIDTH 552 0
DWIDTH 10 0
BBX 14 14 -1 0
BITMAP
000006E10008EA
00001FE001BF91
00003FD00AF600
00003FC07F7000
00002FD3FA0000
00000EECC10000
00000CFE200000
00000BF7000000
00004FF8000000
0001DDFC000000
000CE2EF200000
01BF309FA00000
1CF5002FFBA000
CD400005DE6000
ENDCHAR
STARTCHAR Y
ENCODING 89
SWIDTH 580 0
DWIDTH 10 0
BBX 13 19 0 -5
BITMAP
0008EB00004E30
0004FE0000CF20
0004FB0004FA00
000AF6000CF400
001FF1004FE000
008F9000BF9000
00EF3004FF4000
05FB000BFD0000
0BF5005FF80000
2FE000DCF30000
6F9007ACC00000
AF503C4F600000
9F64B1BE100000
3DE914F7000000
00000CD0000000
00008F40000000
0006F700000000
018F8000000000
0DD50000000000
ENDCHAR
STARTCHAR Z
ENCODING 90
SWIDTH 501 0
DWIDTH 9 0
BBX 12 14 -1 0
BITMAP
000A71137CD3
0009FFFFFDFA
0002BDB73DF4
00000001CF70
0000001BF800
000000BF8000
00000AF90000
00008F900000
0006FA000000
004FA0000000
01EC10000000
0AE359CC7000
2FEFFFFFF300
1DD84103A500
ENDCHAR
STARTCHAR bracketleft
ENCODING 91
SWIDTH 396 0
DWIDTH 7 0
BBX 10 20 0 -4
BITMAP
000000ADC3
000003FC10
000009F400
00000EE000
00004F9000
00009F3000
0000ED0000
0005F80000
000AF30000
001ED00000
005F800000
00AF300000
01FD000000
06F7000000
0BF2000000
1FC0000000
6F70000000
CF30000000
EFE7000000
0110000000
ENDCHAR
STARTCHAR backslash
ENCODING 92
SWIDTH 464 0
DWIDTH 8 0
BBX 7 19 0 -3
BITMAP
1D300000
0E900000
0AD00000
06F10000
02F50000
00D90000
00AD0000
006F1000
002F5000
000D9000
0009D000
0005F200
0002F500
0000D900
00009D00
00005F20
00001F60
00000D90
000006B0
ENDCHAR
STARTCHAR bracketright
ENCODING 93
SWIDTH 394 0
DWIDTH 7 0
BBX 10 20 -1 -4
BITMAP
000002CED3
0000001CF3
0000000ED0
0000005F70
000000AF20
000001EC00
000005F700
00000AF200
00001FB000
00005F6000
0000BF1000
0001FB0000
0006F60000
000BF10000
001FA00000
006F500000
00CE100000
04FA000000
AFF3000000
0100000000
ENDCHAR
STARTCHAR asciicircum
ENCODING 94
SWIDTH 540 0
DWIDTH 10 0
BBX 9 8 1 6
BITMAP
0000D70000
0007FE0000
001EFF6000
008F4CD000
01E904F500
09D100AC00
2F50002F40
1600000420
ENDCHAR
STARTCHAR underscore
ENCODING 95
SWIDTH 530 0
DWIDTH 10 0
BBX 12 2 -3 -4
BITMAP
9EEEEEEEEEEB
111111111110
ENDCHAR
STARTCHAR grave
ENCODING 96
SWIDTH 219 0
DWIDTH 4 0
BBX 4 4 0 10
BITMAP
2DA0
4FA0
1DB0
03D1
ENDCHAR
STARTCHAR a
ENCODING 97
SWIDTH 541 0
DWIDTH 10 0
BBX 10 10 0 -1
BITMAP
0002AEC6D8
003EC25FF6
02ED103FD0
0AF5009F70
1FE001EF10
5FB007FA00
6F902EF700
3FA2D8FB61
08EC41EFC0
0000002400
ENDCHAR
STARTCHAR b
ENCODING 98
SWIDTH 525 0
DWIDTH 9 0
BBX 9 15 0 0
BITMAP
0003E40000
0006F70000
000AF40000
000DE00000
003FA00000
007F500000
00CE3BEC10
02FBD46F80
06FF404FC0
0BF8006FB0
1FE100AF80
3F9001EF20
4F500AF800
1E94AF9000
04DEB50000
ENDCHAR
STARTCHAR c
ENCODING 99
SWIDTH 465 0
DWIDTH 8 0
BBX 9 9 0 0
BITMAP
0002AEE800
005FC27F20
03FD10AF20
0BF505FC00
2FE0028200
5FA0000000
5F90003000
2EE229B000
04CFD81000
ENDCHAR
STARTCHAR d
ENCODING 100
SWIDTH 557 0
DWIDTH 10 0
BBX 12 15 0 0
BITMAP
0000000002D8
0000000009F5
000000000EE0
000000005F90
00000000AF40
00000000EE00
00018DE9FA00
001CD42EF500
00CE300EF100
07F8004FB000
0DF200AF7000
2FD003FF3000
3FB00CFE0000
1FD1ABDD1200
07ED807ED300
ENDCHAR
STARTCHAR e
ENCODING 101
SWIDTH 471 0
DWIDTH 8 0
BBX 9 9 0 0
BITMAP
00029EE700
003EB2AF10
01EE10BF20
09F704FD00
1FF48FD300
3FFDB71000
3FB0002000
0DE227E200
03CEEB4000
ENDCHAR
STARTCHAR f
ENCODING 102
SWIDTH 393 0
DWIDTH 7 0
BBX 11 18 -1 -3
BITMAP
0000003BDA10
000002EC3F80
000009F42F90
00001ED0CF60
00005F906800
0000AF500000
0000EF100000
006DFFDD6000
009CF6211000
000DF1000000
003FB0000000
007F70000000
00CF20000000
02FC00000000
08F700000000
0EF100000000
4F7000000000
010000000000
ENDCHAR
STARTCHAR g
ENCODING 103
SWIDTH 526 0
DWIDTH 9 0
BBX 10 14 0 -5
BITMAP
00029EE462
003EC24EF7
01EE100EF2
09F7005FB0
1FF100BF60
4FC004FF20
4FA01DFC00
2FC2BDF700
07ED79F200
00001EB000
00008F3000
0004F90000
005EC00000
09E9000000
ENDCHAR
STARTCHAR h
ENCODING 104
SWIDTH 555 0
DWIDTH 10 0
BBX 10 15 0 0
BITMAP
0000AC0000
0000EF1000
0002FD0000
0005FA0000
0009F60000
000DF10000
002FB08EB0
007F78EFF4
00BF6D2BF2
02FCC23FC0
07FE30AF60
0DF602FE00
5FB006F900
CF4007F730
BB0002DE80
ENDCHAR
STARTCHAR i
ENCODING 105
SWIDTH 286 0
DWIDTH 5 0
BBX 6 14 0 0
BITMAP
0008F8
000CFA
000381
000000
000000
00CF60
009F60
00BF10
02FA00
08F300
0EB000
5F6000
7FD800
2DE500
ENDCHAR
STARTCHAR j
ENCODING 106
SWIDTH 281 0
DWIDTH 5 0
BBX 9 19 -3 -5
BITMAP
000002DE20
000005FF30
0000007500
0000000000
0000000000
00002DE400
00000CF500
00000CF300
00000EE000
00003FB000
00007F7000
0000BF2000
0001FC0000
0008F60000
000ED00000
007F500000
02EA000000
2CC1000000
D910000000
ENDCHAR
STARTCHAR k
ENCODING 107
SWIDTH 497 0
DWIDTH 9 0
BBX 9 15 0 0
BITMAP
0000AB0000
0000EE0000
0002FC0000
0005F80000
0009F40000
000DE00000
002FA04EB0
007F501FF0
00BE01BF90
02F95DE700
07FEF61000
0DFCF40000
5FA4FC1000
CF30BFC950
CA001AEA10
ENDCHAR
STARTCHAR l
ENCODING 108
SWIDTH 279 0
DWIDTH 5 0
BBX 6 15 0 0
BITMAP
0001D7
0003FB
0006F8
0009F5
000DF1
003FB0
007F60
00CF10
02FB00
07F600
0CF200
2FC000
5F9000
5F7800
1CE500
ENDCHAR
STARTCHAR m
ENCODING 109
SWIDTH 814 0
DWIDTH 15 0
BBX 14 9 0 0
BITMAP
00CE407EA01AE7
00AF68FEF1CEFE
00BF7E47D9A2FC
01FDE30CDC18F5
06FF404FE21ED0
0CF600CF507F60
4FC004FB00BF10
BF400BF300CF96
BB000BB0005EC2
ENDCHAR
STARTCHAR n
ENCODING 110
SWIDTH 561 0
DWIDTH 10 0
BBX 10 9 0 0
BITMAP
00CE308EB1
00AF69EEF5
00BF8E2AF4
01FDE32FE0
06FF408F80
0CF601EF10
4FC004FA00
BF4006F820
BB0001CE90
ENDCHAR
STARTCHAR o
ENCODING 111
SWIDTH 514 0
DWIDTH 9 0
BBX 9 9 0 0
BITMAP
0002AEE800
004FC28F50
02FE205F80
0AF7007F80
1FF100BF50
4FB003FE10
5F900BF600
1EB19F9000
05DFC50000
ENDCHAR
STARTCHAR p
ENCODING 112
SWIDTH 550 0
DWIDTH 10 0
BBX 12 14 -2 -5
BITMAP
0004EC08EE60
0001EEBA1DE1
0001FFB00BF3
0004FE100DF2
0008F7002FE0
000CF1009F70
001FD004FC00
005FF46ED200
009F7ED81000
00EC00000000
04F800000000
09F300000000
1ED000000000
2E6000000000
ENDCHAR
STARTCHAR q
ENCODING 113
SWIDTH 533 0
DWIDTH 10 0
BBX 10 14 0 -5
BITMAP
00018DE552
002DD43FFA
01DE201FF5
08F7005FD0
0EF100BF70
2FC004FF10
3FA00CFA00
1FC1ABF400
06ED69E000
00001F9000
00005F5000
00009F2000
0000AF1000
00004E2000
ENDCHAR
STARTCHAR r
ENCODING 114
SWIDTH 407 0
DWIDTH 7 0
BBX 9 9 0 0
BITMAP
02DD12CD00
00DF4DFF10
00DE9B7900
01FCB00000
06FE200000
0BF7000000
2FE0000000
8F70000000
7E10000000
ENDCHAR
STARTCHAR s
ENCODING 115
SWIDTH 423 0
DWIDTH 8 0
BBX 8 9 0 0
BITMAP
002AEEA1
00DC16F8
03FA03F5
02FF3020
00AFC100
001EF700
5905FA00
BE46F600
3CFD6000
ENDCHAR
STARTCHAR t
ENCODING 116
SWIDTH 358 0
DWIDTH 6 0
BBX 7 12 1 0
BITMAP
00035000
001EE000
007F8000
2DFFFD40
06F80000
0AF30000
0FD00000
4F800000
7F500000
9F204000
8FBBC000
2DEA1000
ENDCHAR
STARTCHAR u
ENCODING 117
SWIDTH 553 0
DWIDTH 10 0
BBX 10 9 0 0
BITMAP
00BE5001DA
009F8008F8
00BF401EF2
02FE009FA0
09F803FF40
1FF20CED00
6FB098E900
8F7884F820
3DD601DE90
ENDCHAR
STARTCHAR v
ENCODING 118
SWIDTH 510 0
DWIDTH 9 0
BBX 9 9 0 0
BITMAP
00BE605E80
008F803FE0
00BF400FE0
02FC001FA0
08F5006F40
1EE001DB00
5F900AD100
6FB6CC1000
1CFC600000
ENDCHAR
STARTCHAR w
ENCODING 119
SWIDTH 750 0
DWIDTH 14 0
BBX 14 9 0 0
BITMAP
02DE4001302EB0
00AF700DF10DF3
009F307F900AF3
00EC01EF200AE0
05F60BFB000D90
0BF16DF7005F20
2FA5D6F601D600
5FDD23FC7D8000
2EB2009ED50000
ENDCHAR
STARTCHAR x
ENCODING 120
SWIDTH 467 0
DWIDTH 8 0
BBX 11 9 -1 0
BITMAP
0006D003CD10
000EF04EC200
000EF2EB1000
000DFCC10000
0009FD100000
0007FB000000
004FFF100000
06F87F812000
4E6009EB2000
ENDCHAR
STARTCHAR y
ENCODING 121
SWIDTH 549 0
DWIDTH 10 0
BBX 10 15 0 -6
BITMAP
00AE6000CB
007F9006FA
00AF500DF5
01FF106FE1
08FA01EFA0
0EF309EF50
5FC06ACE00
7F86B3F900
2DE808F300
00000EB000
00007F3000
0004F90000
004EC00000
0AFA100000
0120000000
ENDCHAR
STARTCHAR z
ENCODING 122
SWIDTH 430 0
DWIDTH 8 0
BBX 9 9 0 0
BITMAP
00CB77AD10
006CB9EF20
00002DF600
0003EF5000
005EE30000
05FD200000
3ED1000000
BFBDED3000
9D967B8000
ENDCHAR
STARTCHAR braceleft
ENCODING 123
SWIDTH 424 0
DWIDTH 8 0
BBX 10 20 0 -4
BITMAP
0000001AEA
000000AF70
000001FD00
000005F800
000009F400
00000DF000
00003FB000
00009F5000
0006FC0000
02EFC20000
01BD100000
006F600000
008F500000
00DF100000
03FA000000
09F4000000
0EE0000000
1FD0000000
0BFC000000
0010000000
ENDCHAR
STARTCHAR bar
ENCODING 124
SWIDTH 306 0
DWIDTH 6 0
BBX 2 19 2 -3
BITMAP
6B
BD
CD
CD
CD
CD
CD
CD
CD
CD
CD
CD
CD
CD
CD
CD
CD
BD
A8
ENDCHAR
STARTCHAR braceright
ENCODING 125
SWIDTH 424 0
DWIDTH 8 0
BBX 10 20 -2 -4
BITMAP
0000002DD6
00000003FC
00000003FB
00000007F6
0000000CF1
0000003FA0
0000008F50
000000AF20
0000005F50
000002BFE0
00001DF610
00008F7000
0000EE1000
0003FA0000
0007F60000
000BF20000
001ED00000
008F700000
1DFB000000
0110000000
ENDCHAR
STARTCHAR asciitilde
ENCODING 126
SWIDTH 624 0
DWIDTH 11 0
BBX 10 5 1 4
BITMAP
019C800009
1DFFF8005A
9C24EF41C3
C2004DFC30
0000001000
ENDCHAR
STARTCHAR nonbreakingspace
ENCODING 160
SWIDTH 293 0
DWIDTH 5 0
BBX 1 1 0 0
BITMAP
00
ENDCHAR
STARTCHAR exclamdown
ENCODING 161
SWIDTH 417 0
DWIDTH 8 0
BBX 7 15 0 -4
BITMAP
00005C50
0000EFD0
00009F80
00000000
0004C000
001E8000
008F2000
01FC0000
07F80000
0DF40000
2FF00000
5FC00000
7F900000
4F700000
05200000
ENDCHAR
STARTCHAR cent
ENCODING 162
SWIDTH 487 0
DWIDTH 9 0
BBX 8 14 1 0
BITMAP
000001C8
000007E1
00002D90
002BEBF4
02DE21F8
0BF609F6
3FE00CB1
7F900000
9F600000
9F600230
5FA03D60
08FFE600
03F30000
06A00000
ENDCHAR
STARTCHAR sterling
ENCODING 163
SWIDTH 665 0
DWIDTH 12 0
BBX 14 14 -1 0
BITMAP
000000001AED50
00000001DE37E0
00000009F605F2
0000003FD00BF1
000000AF708FA0
000001FF26FE20
000007FB019300
0005CFFFD70000
00037FE2220000
00007F80000000
05CDEF20000000
3E37FFC4004800
6E2DE6EFEEF900
1CFB3029EFB100
ENDCHAR
STARTCHAR currency
ENCODING 164
SWIDTH 572 0
DWIDTH 10 0
BBX 10 12 1 0
BITMAP
000C300045
002F6006F8
001FDDCF80
005FB3CE00
03FD10AF30
0BF500CF30
0FE103FE00
1FC00BF700
0DE28FA000
4ECECD8000
C50004D000
2000005000
ENDCHAR
STARTCHAR yen
ENCODING 165
SWIDTH 583 0
DWIDTH 11 0
BBX 12 14 1 0
BITMAP
5EB1000007E9
9CF900008FE3
01EF1006FE30
007F502EE300
001F80BF6000
000BA4F90000
0007DCE10000
0005FF600000
09FFFFFA0000
0138FB610000
0008F4000000
3FFFFFE10000
025FA2000000
005E30000000
ENDCHAR
STARTCHAR brokenbar
ENCODING 166
SWIDTH 292 0
DWIDTH 5 0
BBX 2 19 2 -3
BITMAP
A8
F9
F9
F9
F9
F9
F9
D5
00
00
00
A8
F9
F9
F9
F9
F9
F9
D5
ENDCHAR
STARTCHAR section
ENCODING 167
SWIDTH 583 0
DWIDTH 11 0
BBX 11 19 0 -5
BITMAP
000002ADC700
00002ED44E70
0000AF600CC0
0000DF406FB0
0000CF74FE40
00007FD04200
0007DFF60000
009F57FD0000
02FB00DF6000
04FB006FB000
02FF102FC000
00CF904F8000
004FFAEA0000
0009FD300000
2901EF000000
BE00CF000000
CF21E9000000
4DFE91000000
001000000000
ENDCHAR
STARTCHAR dieresis
ENCODING 168
SWIDTH 412 0
DWIDTH 7 0
BBX 8 3 0 11
BITMAP
1CE31CE4
3FF43FF5
07600670
ENDCHAR
STARTCHAR copyright
ENCODING 169
SWIDTH 871 0
DWIDTH 16 0
BBX 14 14 1 0
BITMAP
000017CEFD9200
0003DC5113AE40
004F80000009E2
02E8005BD911E9
0AD008F92D60AD
1F706FA02E608F
6F20DF22DE209F
8F02FB029400BC
9E03F9000001F8
7F11EC119207F2
3F604DFF903F70
0AD1001003EA00
01BD51138F8000
0006BEFD930000
ENDCHAR
STARTCHAR ordfeminine
ENCODING 170
SWIDTH 564 0
DWIDTH 10 0
BBX 8 9 2 4
BITMAP
0029D97C
03EC3BFB
1DE10AF5
7F601ED0
DF107F70
FC01EF30
EC1BCF21
5FE74FE4
00000100
ENDCHAR
STARTCHAR guillemotleft
ENCODING 171
SWIDTH 662 0
DWIDTH 12 0
BBX 10 7 1 2
BITMAP
000187004C
005DB11AE5
2BF806EC20
AF603FD100
2ED209F700
03ED109F60
003E7009E1
ENDCHAR
STARTCHAR logicalnot
ENCODING 172
SWIDTH 729 0
DWIDTH 13 0
BBX 11 6 1 1
BITMAP
6EEEEEEEEE60
011111112F80
000000002F70
000000003F60
000000003F50
000000002710
ENDCHAR
STARTCHAR uni00AD
ENCODING 173
SWIDTH 833 0
DWIDTH 15 0
BBX 1 1 0 0
BITMAP
00
ENDCHAR
STARTCHAR registered
ENCODING 174
SWIDTH 742 0
DWIDTH 13 0
BBX 12 12 1 2
BITMAP
00005BEEC600
001BC5114CB0
00C96CED51E6
08C08918E08B
0E403E09D06D
3F009EDC207C
5E00E9E300B8
3F15E19D24F2
0E8430175D80
05F81027E900
004CFFFB5000
000012000000
ENDCHAR
STARTCHAR macron
ENCODING 175
SWIDTH 392 0
DWIDTH 7 0
BBX 7 2 1 10
BITMAP
7EEEEE40
11111100
ENDCHAR
STARTCHAR degree
ENCODING 176
SWIDTH 405 0
DWIDTH 7 0
BBX 6 6 2 8
BITMAP
04CFC3
3F92EA
CE10EC
FB03F9
DB1CE2
5DFC30
ENDCHAR
STARTCHAR plusminus
ENCODING 177
SWIDTH 617 0
DWIDTH 11 0
BBX 10 12 1 0
BITMAP
0000C30000
0000F40000
0000F40000
0000F40000
8EEEFEEED1
1111F51110
0000F40000
0000F40000
0000D20000
0000000000
0000000000
8FFFFFFFD1
ENDCHAR
STARTCHAR twosuperior
ENCODING 178
SWIDTH 458 0
DWIDTH 8 0
BBX 8 10 1 4
BITMAP
0019EE80
00BE25F6
00FA04F8
00CE1CF5
0012AFA0
002CFA10
03EE6000
3ED20320
7EACEE20
00001000
ENDCHAR
STARTCHAR threesuperior
ENCODING 179
SWIDTH 430 0
DWIDTH 8 0
BBX 8 10 1 4
BITMAP
0008EE90
007E27F5
00CB05F7
00791CF3
0005DF70
002FF800
0410CE00
7F30DE00
8F17F600
1ADB5000
ENDCHAR
STARTCHAR acute
ENCODING 180
SWIDTH 322 0
DWIDTH 6 0
BBX 5 5 1 10
BITMAP
000300
003F70
00AF60
05F900
2D6000
ENDCHAR
STARTCHAR mu
ENCODING 181
SWIDTH 618 0
DWIDTH 11 0
BBX 12 14 -1 -5
BITMAP
00004E3003E7
0001EE100BF4
0008F8005FC0
001EE101DF50
007F9008FE00
00DF403FF800
03FF12D9F600
08FFAE56FCA0
0DDDD501CE50
1F8000000000
4F6000000000
6F3000000000
8F2000000000
6D0000000000
ENDCHAR
STARTCHAR paragraph
ENCODING 182
SWIDTH 739 0
DWIDTH 13 0
BBX 16 16 0 -2
BITMAP
000000048BCDEED2
000005DFFF74FC00
00008FFFFA06F800
0004FFFFF509F400
0008FFFFF10DE100
0007FFFFC02FB000
0001DFFF806F6000
000017FF40AF1000
000002FF10EB0000
000006FA04F50000
00000BF509E10000
07D61FD00E900000
4FD17F505F300000
6F62EA00CB000000
1DEE9004D2000000
0021000110000000
ENDCHAR
STARTCHAR periodcentered
ENCODING 183
SWIDTH 353 0
DWIDTH 6 0
BBX 3 3 2 4
BITMAP
8FA0
CFE0
3A40
ENDCHAR
STARTCHAR cedilla
ENCODING 184
SWIDTH 301 0
DWIDTH 5 0
BBX 4 5 1 -4
BITMAP
0870
02F1
05F3
5EF1
7E60
ENDCHAR
STARTCHAR onesuperior
ENCODING 185
SWIDTH 403 0
DWIDTH 7 0
BBX 6 10 2 4
BITMAP
001BC1
02CFF3
7ECFE0
235F90
00AF30
01EC00
07F500
1EB000
7E2000
420000
ENDCHAR
STARTCHAR ordmasculine
ENCODING 186
SWIDTH 498 0
DWIDTH 9 0
BBX 8 9 1 4
BITMAP
0003BDB2
006FA3EC
02FC00CF
0AF400EE
0EE004FA
1FB00CF3
0EC09F70
04EFD600
00010000
ENDCHAR
STARTCHAR guillemotright
ENCODING 187
SWIDTH 665 0
DWIDTH 12 0
BBX 10 7 1 2
BITMAP
0DB006E400
05FB01CE40
007FA01DE3
000CF405FC
01BF706EC2
3EB209E600
B500691000
ENDCHAR
STARTCHAR onequarter
ENCODING 188
SWIDTH 988 0
DWIDTH 18 0
BBX 15 15 2 0
BITMAP
0000000001600000
003D80001DB00000
04EFC0008F300000
8FEF9002F9000000
859F400AE1000000
00ED004F61920000
04F700CC05F80000
0BE106F409F40000
3F701EA01FD07C10
BC008F209F50CF00
9102F801FC03FA00
000BD100CFFFFF30
004F6000023FA100
00DC0000008E1000
04D3000000D30000
ENDCHAR
STARTCHAR onehalf
ENCODING 189
SWIDTH 988 0
DWIDTH 18 0
BBX 16 14 1 0
BITMAP
0003D800007D0000
002DFD0004F70000
05EFF9000DC00000
1C99F5007F300000
000DE102E9000000
002F900AE118EE91
009F204F609E33F8
01EA00DC00DD02FA
07F207F3008D1AF7
0E601E9000009FC0
01009E10001BFB10
0003F60003DF7000
000CC0002EE30330
004D30005FEFFD30
ENDCHAR
STARTCHAR threequarters
ENCODING 190
SWIDTH 1007 0
DWIDTH 18 0
BBX 17 15 0 0
BITMAP
000000000000250000
0004DEB20002E90000
003F62FA000AE20000
007F20FC004F700000
003B28F800CD000000
0002AFB006F4280000
000CFC001EB07F3000
03208F508F20BE1100
2F808F42F803F90D80
3F63EB0AE10BE22F80
07DC804F603F707F30
000000CC001CFEFF80
000006F4000026F200
00001EA000000D8000
00006C2000005A0000
ENDCHAR
STARTCHAR questiondown
ENCODING 191
SWIDTH 516 0
DWIDTH 9 0
BBX 9 15 0 -4
BITMAP
000001AA10
000006FF50
000003ED20
0000001000
000005C000
00003EB000
0003EF4000
006FF60000
09FE400000
6FD2250000
CE20CF3000
EA00AF3000
AC03EC0000
2BEFA10000
0010000000
ENDCHAR
STARTCHAR Agrave
ENCODING 192
SWIDTH 615 0
DWIDTH 11 0
BBX 14 18 -2 0
BITMAP
00000000004400
0000000001FD00
00000000009F90
00000000000371
00000000004BE9
0000000008EBF7
000000009E3AF2
00000006E31FC0
0000003F607F70
000000CC00CF20
000006F302FC00
00005EFCEFFFF2
0008EE999EF950
0002F7001FE000
000AE1004FB000
005F60006F8000
05EB00006F8210
4EA100001BEA10
ENDCHAR
STARTCHAR Aacute
ENCODING 193
SWIDTH 615 0
DWIDTH 11 0
BBX 15 18 -2 0
BITMAP
0000000000000A40
0000000000005F90
000000000003EC20
0000000000055000
00000000004BE900
0000000008EBF700
000000009E3AF200
00000006E31FC000
0000003F607F7000
000000CC00CF2000
000006F302FC0000
00005EFCEFFFF200
0008EE999EF95000
0002F7001FE00000
000AE1004FB00000
005F60006F800000
05EB00006F821000
4EA100001BEA1000
ENDCHAR
STARTCHAR Acircumflex
ENCODING 194
SWIDTH 615 0
DWIDTH 11 0
BBX 15 18 -2 0
BITMAP
0000000000007400
00000000001AFD00
0000000006EB8F70
0000000006400650
00000000004BE900
0000000008EBF700
000000009E3AF200
00000006E31FC000
0000003F607F7000
000000CC00CF2000
000006F302FC0000
00005EFCEFFFF200
0008EE999EF95000
0002F7001FE00000
000AE1004FB00000
005F60006F800000
05EB00006F821000
4EA100001BEA1000
ENDCHAR
STARTCHAR Atilde
ENCODING 195
SWIDTH 615 0
DWIDTH 11 0
BBX 16 17 -2 0
BITMAP
0000000003BD8057
000000001C37FE91
0000000000000000
00000000004BE900
0000000008EBF700
000000009E3AF200
00000006E31FC000
0000003F607F7000
000000CC00CF2000
000006F302FC0000
00005EFCEFFFF200
0008EE999EF95000
0002F7001FE00000
000AE1004FB00000
005F60006F800000
05EB00006F821000
4EA100001BEA1000
ENDCHAR
STARTCHAR Adieresis
ENCODING 196
SWIDTH 615 0
DWIDTH 11 0
BBX 16 17 -2 0
BITMAP
000000000BE50BE5
000000002FF61FF7
0000000006700570
00000000004BE900
0000000008EBF700
000000009E3AF200
00000006E31FC000
0000003F607F7000
000000CC00CF2000
000006F302FC0000
00005EFCEFFFF200
0008EE999EF95000
0002F7001FE00000
000BE1004FA00000
005F60006F700000
05EB00006FDA2000
4EA100001BE90000
ENDCHAR
STARTCHAR Aring
ENCODING 197
SWIDTH 615 0
DWIDTH 11 0
BBX 15 18 -2 0
BITMAP
000000000018DC20
0000000000AD3EA0
0000000001F70DA0
0000000001F85F50
0000000000CFFF00
0000000009FEF800
00000000AF78F300
00000009F50ED000
0000005F806F8000
000001EC00BF3000
000009F402FD0000
0003BFFCDEFFC100
0005EC111DF20000
0005F4002FD00000
000DC0004FA00000
007F40006F800000
06FA00006F821000
5EA100001CEA1000
ENDCHAR
STARTCHAR AE
ENCODING 198
SWIDTH 878 0
DWIDTH 16 0
BBX 20 14 -2 0
BITMAP
00000000006DFBBEFD50
0000000009D4DFE615F1
000000008D18FE3008F2
00000005F40EF6008FC0
0000001E903FD007FE30
0000009E104FA0017200
000004F6001EB0000000
00001DFBEFFFFDE40000
0005EFDDDDDFFE820000
0003FB0000AFB1000000
000BF20005FD10000000
005F800009F7001B6000
03EC000006FB24DE3000
2EB10000007DFD920000
ENDCHAR
STARTCHAR Ccedilla
ENCODING 199
SWIDTH 533 0
DWIDTH 10 0
BBX 11 18 0 -4
BITMAP
0000018DEB20
00003DE51AB0
0002EE200AE0
000CF4003FD0
008FA003EF70
01EF200BFC00
06FB00026100
0BF600000000
0EF300000000
1FF100000000
1FF000000000
0DF200051000
07FA13AF2000
008FFEA40000
000980000000
000BC0000000
008F90000000
01DC20000000
ENDCHAR
STARTCHAR Egrave
ENCODING 200
SWIDTH 509 0
DWIDTH 9 0
BBX 11 18 0 0
BITMAP
000000440000
000000FD0000
0000009F9000
000000037100
000017CED900
0002DF921E60
001DF6003F70
007FA004EF20
00CF302FF700
00EF00064000
00AF21000000
001DFFA00000
00AFE7200000
09FD20000000
1FF300010000
4FC0007C0000
1EE229F70000
03CEEB400000
ENDCHAR
STARTCHAR Eacute
ENCODING 201
SWIDTH 509 0
DWIDTH 9 0
BBX 11 18 0 0
BITMAP
000000000A40
000000005FA0
00000003EC20
000000055000
000017CED900
0002DF921E60
001DF6003F70
007FA004EF20
00CF302FF700
00EF00064000
00AF21000000
001DFFA00000
00AFE7200000
09FD20000000
1FF300010000
4FC0007C0000
1EE229F70000
03CEEB400000
ENDCHAR
STARTCHAR Ecircumflex
ENCODING 202
SWIDTH 509 0
DWIDTH 9 0
BBX 11 18 0 0
BITMAP
000000007400
0000001AFD00
000006DB8F70
000005400650
000017CED900
0002DF921E60
001DF6003F70
007FA004EF20
00CF302FF700
00EF00064000
00AF21000000
001DFFA00000
00AFE7200000
09FD20000000
1FF300010000
4FC0007C0000
1EE229F70000
03CEEB400000
ENDCHAR
STARTCHAR Edieresis
ENCODING 203
SWIDTH 509 0
DWIDTH 9 0
BBX 12 17 0 0
BITMAP
00000BE50BE5
00001FF61FF7
000006700570
000017CED900
0002DF921E60
001DF6003F70
007FA004EF20
00CF302FF700
00EF00064000
00AF21000000
001DFFA00000
00AFE7200000
09FD20000000
1FF300010000
4FC0007C0000
1EE229F70000
03CEEB400000
ENDCHAR
STARTCHAR Igrave
ENCODING 204
SWIDTH 327 0
DWIDTH 6 0
BBX 8 18 -1 0
BITMAP
00000610
00007F70
00002DE3
00000155
000AEE90
00065BF3
00000DF2
00001FF0
00004FC0
00008F80
0000DF30
0002FD00
0008F800
000DF200
005FA000
00CF2000
08F70000
1E800000
ENDCHAR
STARTCHAR Iacute
ENCODING 205
SWIDTH 327 0
DWIDTH 6 0
BBX 10 18 -1 0
BITMAP
0000000120
00000008F3
0000002ED1
000001CA20
000AEE9000
00065BF300
00000DF200
00001FF000
00004FC000
00008F8000
0000DF3000
0002FD0000
0008F80000
000DF20000
005FA00000
00CF200000
08F7000000
1E80000000
ENDCHAR
STARTCHAR Icircumflex
ENCODING 206
SWIDTH 327 0
DWIDTH 6 0
BBX 10 18 -1 0
BITMAP
0000002810
000004DF70
0002AE7DE2
0001720272
000AEE9000
00065BF300
00000DF200
00001FF000
00004FC000
00008F8000
0000DF3000
0002FD0000
0008F80000
000DF20000
005FA00000
00CF200000
08F7000000
1E80000000
ENDCHAR
STARTCHAR Idieresis
ENCODING 207
SWIDTH 327 0
DWIDTH 6 0
BBX 11 17 -1 0
BITMAP
0004EC04EC10
0008FE07FF10
000184018400
000AEE900000
00065BF30000
00000DF20000
00001FF00000
00004FC00000
00008F800000
0000DF300000
0002FD000000
0008F8000000
000DF2000000
005FA0000000
00CF20000000
08F700000000
1E8000000000
ENDCHAR
STARTCHAR Eth
ENCODING 208
SWIDTH 630 0
DWIDTH 11 0
BBX 12 14 0 0
BITMAP
006ADFFD9200
03FF8213AF50
005322000CE1
0003FF0007F6
000AF90006F8
001FF20008F7
3EFFFFF30CF4
38FF98602FE0
04FC0000AF70
09F60005FD00
0EF1004EE200
2FC005EE3000
3F929FC20000
08EEB5000000
ENDCHAR
STARTCHAR Ntilde
ENCODING 209
SWIDTH 708 0
DWIDTH 13 0
BBX 15 17 0 0
BITMAP
000000006CD60840
00000005A2AFE700
0000000000010000
000006E9000BE400
00005FF90008FD00
0001EDF70004FE00
000AD7F60004FB00
002F68F60007F500
009E07F7000CE100
01E906F9002F7000
06F305FB009E1000
0BE002FE01E60000
1F9000EF37D00000
4F6000AF7D600000
8F20005FED000000
9E00000CF8000000
6C000003D5000000
ENDCHAR
STARTCHAR Ograve
ENCODING 210
SWIDTH 655 0
DWIDTH 12 0
BBX 12 18 1 0
BITMAP
000000061000
0000006F8000
0000002DF400
000000005500
000007CFD800
0002CF715F70
001DF5000DE0
00BF80000CF1
05FD00000DF1
0DF600002FE0
3FD000006FA0
8F900000CF50
BF400004FE00
DF10000BF600
DE00006FC000
BF0003ED2000
4F815ED20000
05DFD8100000
ENDCHAR
STARTCHAR Oacute
ENCODING 211
SWIDTH 655 0
DWIDTH 12 0
BBX 12 18 1 0
BITMAP
0000000003A1
000000000AF4
000000007F80
000000007300
000007CFD800
0002CF715F70
001DF5000DE0
00BF80000CF1
05FD00000DF1
0DF600002FE0
3FD000006FA0
8F900000CF50
BF400004FE00
DF10000BF600
DE00006FC000
BF0003ED2000
4F815ED20000
05DFD8100000
ENDCHAR
STARTCHAR Ocircumflex
ENCODING 212
SWIDTH 655 0
DWIDTH 12 0
BBX 12 18 1 0
BITMAP
000000001810
00000003DF80
0000019F7CE2
000001720173
000007CFD800
0002CF715F70
001DF5000DE0
00BF80000CF1
05FD00000DF1
0DF600002FE0
3FD000006FA0
8F900000CF50
BF400004FE00
DF10000BF600
DE00006FC000
BF0003ED2000
4F815ED20000
05DFD8100000
ENDCHAR
STARTCHAR Otilde
ENCODING 213
SWIDTH 655 0
DWIDTH 12 0
BBX 13 17 1 0
BITMAP
0000007DC40920
00000683BFD600
00000000010000
000007CFD80000
0002CF715F7000
001DF5000DE000
00BF80000CF100
05FD00000DF100
0DF600002FE000
3FD000006FA000
8F900000CF5000
BF400004FE0000
DF10000BF60000
DE00006FC00000
BF0003ED200000
4F815ED2000000
05DFD810000000
ENDCHAR
STARTCHAR Odieresis
ENCODING 214
SWIDTH 655 0
DWIDTH 12 0
BBX 13 17 1 0
BITMAP
000003ED13ED10
000007FF16FF10
00000184018500
000007CFD80000
0002CF715F7000
001DF5000DE000
00BF80000CF100
05FD00000DF100
0DF600002FE000
3FD000006FA000
8F900000CF5000
BF400004FE0000
DF10000BF60000
DE00006FC00000
BF0003ED200000
4F815ED2000000
05DFD810000000
ENDCHAR
STARTCHAR multiply
ENCODING 215
SWIDTH 573 0
DWIDTH 10 0
BBX 9 7 1 3
BITMAP
0E70004E30
05F604F700
005F9F7000
0009F90000
005FAF4000
06F607F400
1E50007D00
ENDCHAR
STARTCHAR Oslash
ENCODING 216
SWIDTH 655 0
DWIDTH 12 0
BBX 12 17 1 -2
BITMAP
0000000004DC
0000029EFFC1
00006FC3AFF2
0006FC13F8F7
003FE20B94F9
00BF705E16F9
04FE10D508F7
09F706B00DF4
0EF21D203FE0
2FC08900AF80
5FA2E102FE10
5F8A700CF600
3FCD108F8000
0CF829F80000
09EEEB400000
2F4000000000
150000000000
ENDCHAR
STARTCHAR Ugrave
ENCODING 217
SWIDTH 624 0
DWIDTH 11 0
BBX 13 18 0 0
BITMAP
00000006100000
0000006F700000
0000002DE30000
00000000550000
0007EB00004E40
0003FF0000BF40
0004FC0004FC00
0009F7000BF600
001EF1003FF100
007FA000BFB000
00DF4003FF6000
04FC000BFF2000
0BF6004FFC0000
1FE100CBF80000
6FA007B8F40000
9F603C1BF20000
9F73B20BF33000
2DE91004EE6000
ENDCHAR
STARTCHAR Uacute
ENCODING 218
SWIDTH 624 0
DWIDTH 11 0
BBX 13 18 0 0
BITMAP
0000000003A100
000000000BF400
000000008F8000
00000000730000
0007EB00004E40
0003FF0000BF40
0004FC0004FC00
0009F7000BF600
001EF1003FF100
007FA000BFB000
00DF4003FF6000
04FC000BFF2000
0BF6004FFC0000
1FE100CBF80000
6FA007B8F40000
9F603C1BF20000
9F73B20BF33000
2DE91004EE6000
ENDCHAR
STARTCHAR Ucircumflex
ENCODING 219
SWIDTH 624 0
DWIDTH 11 0
BBX 13 18 0 0
BITMAP
00000000181000
00000003DF8000
0000019E7CE200
00000172027300
0007EB00004E40
0003FF0000BF40
0004FC0004FC00
0009F7000BF600
001EF1003FF100
007FA000BFB000
00DF4003FF6000
04FC000BFF2000
0BF6004FFC0000
1FE100CBF80000
6FA007B8F40000
9F603C1BF20000
9F73B20BF33000
2DE91004EE6000
ENDCHAR
STARTCHAR Udieresis
ENCODING 220
SWIDTH 624 0
DWIDTH 11 0
BBX 13 17 0 0
BITMAP
000004EC13ED10
000007FF16FF10
00000184018400
0007EB00004E40
0003FF0000BF40
0004FC0004FC00
0009F7000BF600
001EF1003FF100
007FA000BFB000
00DF4003FF6000
04FC000BFF2000
0BF6004FFC0000
1FE100CBF80000
6FA007B8F40000
9F603C1BF20000
9F73B20BF33000
2DE91004EE6000
ENDCHAR
STARTCHAR Yacute
ENCODING 221
SWIDTH 580 0
DWIDTH 10 0
BBX 13 23 0 -5
BITMAP
00000000012000
0000000009F200
000000003FD100
00000001D91000
0008EB00004E30
0004FE0000CF20
0004FB0004FA00
000AF6000CF400
001FF1004FE000
008F9000BF9000
00EF3004FF4000
05FB000BFD0000
0BF5005FF80000
2FE000DCF30000
6F9007ACC00000
AF503C4F600000
9F64B1BE100000
3DE914F7000000
00000CD0000000
00008F40000000
0006F700000000
018F8000000000
0DD50000000000
ENDCHAR
STARTCHAR Thorn
ENCODING 222
SWIDTH 527 0
DWIDTH 10 0
BBX 11 14 -1 0
BITMAP
006DFD300000
00376F800000
00008F800000
0000BF600000
0000EFED9300
0003FE32AE30
0007F9003F90
000CF5006F90
002FE004EF30
008FB7CFE500
01EFBB950000
07F800000000
3FD100000000
BB2000000000
ENDCHAR
STARTCHAR germandbls
ENCODING 223
SWIDTH 520 0
DWIDTH 9 0
BBX 11 18 -1 -3
BITMAP
0000008DC700
00000AF53F60
00005F700FA0
0000DE104F90
0004F900BF40
0009F407F900
000DF04F9000
002FB0CD0000
006F81FA0000
00AF40EE2000
00DF109FB000
02FC001DF600
06F85A03FA00
0AF4AF53F600
0EE03CFD6000
5F9000000000
BF3000000000
540000000000
ENDCHAR
STARTCHAR agrave
ENCODING 224
SWIDTH 541 0
DWIDTH 10 0
BBX 10 15 0 -1
BITMAP
000008E100
00000DF100
000009F200
000001D600
0000001200
0002AEC6D8
003EC25FF6
02ED103FD0
0AF5009F70
1FE001EF10
5FB007FA00
6F902EF700
3FA2D8FB61
08EC41EFC0
0000002400
ENDCHAR
STARTCHAR aacute
ENCODING 225
SWIDTH 541 0
DWIDTH 10 0
BBX 10 16 0 -1
BITMAP
0000000210
0000001EA0
0000007F90
000003EC10
00001C8100
0000000000
0002AEC6D8
003EC25FF6
02ED103FD0
0AF5009F70
1FE001EF10
5FB007FA00
6F902EF700
3FA2D8FB61
08EC41EFC0
0000002400
ENDCHAR
STARTCHAR acircumflex
ENCODING 226
SWIDTH 541 0
DWIDTH 10 0
BBX 10 15 0 -1
BITMAP
0000000870
000001AFE0
00004DB9F3
0005E702D7
0000000000
0002AEC6D8
003EC25FF6
02ED103FD0
0AF5009F70
1FE001EF10
5FB007FA00
6F902EF700
3FA2D8FB61
08EC41EFC0
0000002400
ENDCHAR
STARTCHAR atilde
ENCODING 227
SWIDTH 541 0
DWIDTH 10 0
BBX 11 15 0 -1
BITMAP
00003CD20540
0002B2DB1B10
0006505FD300
000000010000
000000000000
0002AEC6D800
003EC25FF600
02ED103FD000
0AF5009F7000
1FE001EF1000
5FB007FA0000
6F902EF70000
3FA2D8FB6100
08EC41EFC000
000000240000
ENDCHAR
STARTCHAR adieresis
ENCODING 228
SWIDTH 541 0
DWIDTH 10 0
BBX 11 15 0 -1
BITMAP
0002DD22DD20
0005FF25FF30
000085007500
000000000000
000000000000
0002AEC6D800
003EC25FF600
02ED103FD000
0AF5009F7000
1FE001EF1000
5FB007FA0000
6F902EF70000
3FA2D8FB6100
08EC41EFC000
000000240000
ENDCHAR
STARTCHAR aring
ENCODING 229
SWIDTH 541 0
DWIDTH 10 0
BBX 10 15 0 -1
BITMAP
000005CEB1
00003F74F5
00006F27F2
00002DFE50
0000001000
0002AEC6D8
003EC25FF6
02ED103FD0
0AF5009F70
1FE001EF10
5FB007FA00
6F902EF700
3FA2D8FB61
08EC41EFC0
0000002400
ENDCHAR
STARTCHAR ae
ENCODING 230
SWIDTH 769 0
DWIDTH 14 0
BBX 14 9 0 0
BITMAP
0002AEC6EBDFB1
003EC25FFC29F6
02ED103FF209F8
0AF5009F903FF4
1FD001EF46EF70
5FA007FFED9300
6F802EFF100010
3FB2D5AF614C70
08EC401AEFD700
ENDCHAR
STARTCHAR ccedilla
ENCODING 231
SWIDTH 465 0
DWIDTH 8 0
BBX 9 13 0 -4
BITMAP
0003AEE700
005FC28F20
03FD10AF20
0BF505FC00
2FE0028200
5FA0000000
6F90003000
2FD229B000
06EFD81000
003E100000
003F400000
04DF200000
06E6000000
ENDCHAR
STARTCHAR egrave
ENCODING 232
SWIDTH 471 0
DWIDTH 8 0
BBX 9 14 0 0
BITMAP
00004E5000
00008F5000
00004F6000
000009B000
0000002000
00029EE700
003EB2AF10
01EE10BF20
09F704FD00
1FF48FD300
3FFDB71000
3FB0002000
0DE227E200
03CEEB4000
ENDCHAR
STARTCHAR eacute
ENCODING 233
SWIDTH 471 0
DWIDTH 8 0
BBX 9 15 0 0
BITMAP
0000001200
000000BE10
000002FE00
00000CE300
00009A2000
0000000000
00029EE700
003EB2AF10
01EE10BF20
09F704FD00
1FF48FD300
3FFDB71000
3FB0002000
0DE227E200
03CEEB4000
ENDCHAR
STARTCHAR ecircumflex
ENCODING 234
SWIDTH 471 0
DWIDTH 8 0
BBX 9 14 0 0
BITMAP
0000005A00
000006FF30
0002AE7F70
001EA10BC0
0000000000
00029EE700
003EB2AF10
01EE10BF20
09F704FD00
1FF48FD300
3FFDB71000
3FB0002000
0DE227E200
03CEEB4000
ENDCHAR
STARTCHAR edieresis
ENCODING 235
SWIDTH 471 0
DWIDTH 8 0
BBX 10 14 0 0
BITMAP
000BE50BE6
001FF70FF7
0005700571
0000000000
0000000000
00029EE800
003EA1AF20
01EC01DF10
09F43CF600
1FFCC93000
3FB0000000
3FC0008100
0DF32AE100
03CEEA2000
ENDCHAR
STARTCHAR igrave
ENCODING 236
SWIDTH 286 0
DWIDTH 5 0
BBX 5 14 0 0
BITMAP
003D70
006F80
002F90
0007D0
000020
00CF60
009F60
00BF10
02FA00
08F300
0EB000
5F6000
7FD800
2DE500
ENDCHAR
STARTCHAR iacute
ENCODING 237
SWIDTH 286 0
DWIDTH 5 0
BBX 7 15 0 0
BITMAP
00001200
00009F20
0001EF10
000AF500
007B3000
00000000
00CF6000
009F6000
00BF1000
02FA0000
08F30000
0EB00000
5F600000
7FD80000
2DE50000
ENDCHAR
STARTCHAR icircumflex
ENCODING 238
SWIDTH 286 0
DWIDTH 5 0
BBX 7 14 0 0
BITMAP
00003A10
0005EF50
019E6F90
0DB209D0
00000000
00CF6000
009F6000
00BF1000
02FA0000
08F30000
0EB00000
5F600000
7FD80000
2DE50000
ENDCHAR
STARTCHAR idieresis
ENCODING 239
SWIDTH 286 0
DWIDTH 5 0
BBX 8 14 0 0
BITMAP
09E708E8
0EF90DFA
04810481
00000000
00000000
00CF6000
009F6000
00BF1000
02FA0000
08F30000
0EB00000
5F600000
7FD80000
2DE50000
ENDCHAR
STARTCHAR eth
ENCODING 240
SWIDTH 524 0
DWIDTH 9 0
BBX 12 15 0 0
BITMAP
0000001D2000
0000000A9000
00000006FED1
000001AFFA51
00000883F700
00000002F800
0002AEE8F600
003EC24FF400
01ED101FF100
09F6006FB000
1EE000CF5000
3FB004FC0000
4FA00CF30000
1FC2AF400000
06EEA2000000
ENDCHAR
STARTCHAR ntilde
ENCODING 241
SWIDTH 561 0
DWIDTH 10 0
BBX 11 14 0 0
BITMAP
00003CD20550
0002B2DB1B10
0006505FD300
000000010000
000000000000
00CE308EB100
00AF69EEF500
00BF8E2AF400
01FDE32FE000
06FF408F8000
0CF601EF1000
4FC004FA0000
BF4006F82000
BB0001CE9000
ENDCHAR
STARTCHAR ograve
ENCODING 242
SWIDTH 514 0
DWIDTH 9 0
BBX 9 14 0 0
BITMAP
000006E300
00000BF300
000007F400
000000B800
0000000200
0002AEE800
004FC28F50
02FE205F80
0AF7007F80
1FF100BF50
4FB003FE10
5F900BF600
1EB19F9000
05DFC50000
ENDCHAR
STARTCHAR oacute
ENCODING 243
SWIDTH 514 0
DWIDTH 9 0
BBX 9 15 0 0
BITMAP
0000000210
0000000DD0
0000004FC0
000001DD20
00000B9100
0000000000
0002AEE800
004FC28F50
02FE205F80
0AF7007F80
1FF100BF50
4FB003FE10
5F900BF600
1EB19F9000
05DFC50000
ENDCHAR
STARTCHAR ocircumflex
ENCODING 244
SWIDTH 514 0
DWIDTH 9 0
BBX 10 14 0 0
BITMAP
0000000690
0000008FF1
00003CD8F5
0003E911C9
0000000000
0002AEE800
004FC28F50
02FE205F80
0AF7007F80
1FF100BF50
4FB003FE10
5F900BF600
1EB19F9000
05DFC50000
ENDCHAR
STARTCHAR otilde
ENCODING 245
SWIDTH 514 0
DWIDTH 9 0
BBX 11 14 0 0
BITMAP
00002BE40370
0000C2CD1A30
0003703EE500
000000010000
000000000000
0002AEE80000
004FC28F5000
02FE205F8000
0AF7007F8000
1FF100BF5000
4FB003FE1000
5F900BF60000
1EB19F900000
05DFC5000000
ENDCHAR
STARTCHAR odieresis
ENCODING 246
SWIDTH 514 0
DWIDTH 9 0
BBX 11 14 0 0
BITMAP
0001CE31CE40
0003FF42FF50
000076006700
000000000000
000000000000
0002AEE80000
004FC28F5000
02FE205F8000
0AF7007F8000
1FF100BF5000
4FB003FE1000
5F900BF60000
1EB19F900000
05DFC5000000
ENDCHAR
STARTCHAR divide
ENCODING 247
SWIDTH 617 0
DWIDTH 11 0
BBX 10 9 1 2
BITMAP
0001A91000
0003FF1000
0000640000
0000000000
5CCCCCCCC2
1333333330
0000310000
0006FD0000
0004E90000
ENDCHAR
STARTCHAR oslash
ENCODING 248
SWIDTH 514 0
DWIDTH 9 0
BBX 10 13 0 -2
BITMAP
0000000172
0000001DF3
0002AEEF50
005FC3EF40
02FE28AF80
0AF62B6F80
1FE1A2AF60
4FA582FE10
4F8B1AF700
1EE69F9000
09FFC60000
0E70000000
0600000000
ENDCHAR
STARTCHAR ugrave
ENCODING 249
SWIDTH 553 0
DWIDTH 10 0
BBX 10 14 0 0
BITMAP
000002D900
000005F900
000001EA00
0000006E00
0000000200
00BE6001DA
009F8008F7
00BF302FE1
02FD00BF80
09F606FF20
1FE13DDB00
6F82D5F800
8FCE64FDA0
3DD501DE60
ENDCHAR
STARTCHAR uacute
ENCODING 250
SWIDTH 553 0
DWIDTH 10 0
BBX 10 15 0 0
BITMAP
0000000030
00000007F3
0000000DF3
0000009F60
000005C400
0000000000
00BE5001DA
009F8008F8
00BF401EF2
02FE009FA0
09F803FF40
1FF20CED00
6FB098E900
8F7884F820
3DD601DE90
ENDCHAR
STARTCHAR ucircumflex
ENCODING 251
SWIDTH 553 0
DWIDTH 10 0
BBX 11 14 0 0
BITMAP
00000002B200
0000004EF700
000018F6EB00
0000CC307E10
000000000000
00BE5001DA00
009F8008F800
00BF401EF200
02FE009FA000
09F803FF4000
1FF20CED0000
6FB098E90000
8F7884F82000
3DD601DE9000
ENDCHAR
STARTCHAR udieresis
ENCODING 252
SWIDTH 553 0
DWIDTH 10 0
BBX 11 14 0 0
BITMAP
00008F807E90
0000CFA0CFB0
000038203820
000000000000
000000000000
00BE5001DA00
009F8008F800
00BF401EF200
02FE009FA000
09F803FF4000
1FF20CED0000
6FB098E90000
8F7884F82000
3DD601DE9000
ENDCHAR
STARTCHAR yacute
ENCODING 253
SWIDTH 549 0
DWIDTH 10 0
BBX 10 21 0 -6
BITMAP
0000000210
0000000EC0
0000005FB0
000002ED20
00000C9100
0000000000
00AE6000CB
007F9006FA
00AF500DF5
01FF106FE1
08FA01EFA0
0EF309EF50
5FC06ACE00
7F86B3F900
2DE808F300
00000EB000
00007F3000
0004F90000
004EC00000
0AFA100000
0120000000
ENDCHAR
STARTCHAR thorn
ENCODING 254
SWIDTH 552 0
DWIDTH 10 0
BBX 12 20 -2 -5
BITMAP
000000350000
000000AF0000
000000ED0000
000003F90000
000007F40000
00000CE00000
00002F97DE60
00006FCA1DF1
0000BFB00BF3
0001FE200CF3
0006F8002FE0
000BF2008F80
001FD004FD10
005FF46ED200
00AF6DD81000
01EB00000000
06F600000000
0CF100000000
4FA000000000
6E2000000000
ENDCHAR
STARTCHAR ydieresis
ENCODING 255
SWIDTH 549 0
DWIDTH 10 0
BBX 11 20 0 -6
BITMAP
0002DE31DE30
0004FF33FF40
000076007600
000000000000
000000000000
00AE6000CB00
007F9006FA00
00AF500DF500
01FF106FE100
08FA01EFA000
0EF309EF5000
5FC06ACE0000
7F86B3F90000
2DE808F30000
00000EB00000
00007F300000
0004F9000000
004EC0000000
0AFA10000000
012000000000
ENDCHAR
STARTCHAR Amacron
ENCODING 256
SWIDTH 615 0
DWIDTH 11 0
BBX 16 16 -2 0
BITMAP
000000000AEEEED1
0000000001111100
00000000004BE900
0000000008EBF700
000000009E3AF200
00000006E31FC000
0000003F607F7000
000000CC00CF2000
000006F302FC0000
00005EFCEFFFF200
0008EE999EF95000
0002F7001FE00000
000AE1004FB00000
005F60006F800000
05EB00006F821000
4EA100001BEA1000
ENDCHAR
STARTCHAR amacron
ENCODING 257
SWIDTH 543 0
DWIDTH 10 0
BBX 10 13 0 -1
BITMAP
0003DEEEE9
0000111110
0000000000
0002AED6D8
003EC35FF6
01ED103FE0
09F6008F70
1FE001EF10
4FB007FB00
5F902EF700
3FA2C8FB61
07EC41EFC0
0000002400
ENDCHAR
STARTCHAR Abreve
ENCODING 258
SWIDTH 615 0
DWIDTH 11 0
BBX 16 18 -2 0
BITMAP
0000000000520032
0000000001F904D2
00000000009FEB30
0000000000010000
00000000004BE900
0000000008EBF700
000000009E3AF200
00000006E31FC000
0000003F607F7000
000000CC00CF2000
000006F302FC0000
00005EFCEFFFF200
0008EE999EF95000
0002F7001FE00000
000BE1004FA00000
005F60006F700000
05EB00006FDA2000
4EA100001BE90000
ENDCHAR
STARTCHAR abreve
ENCODING 259
SWIDTH 543 0
DWIDTH 10 0
BBX 10 15 0 -1
BITMAP
00003E100B
00007F5199
00001CFE70
0000001000
0000000000
0002AED6D8
003EC35FF6
01ED103FE0
09F6008F70
1FE001EF10
4FB007FB00
5F902EF700
3FA2C8FB61
07EC41EFC0
0000002400
ENDCHAR
STARTCHAR Aogonek
ENCODING 260
SWIDTH 615 0
DWIDTH 11 0
BBX 14 19 -2 -5
BITMAP
00000000004BE9
0000000008EBF7
000000009E3AF2
00000006E31FC0
0000003F607F70
000000CC00CF20
000006F302FC00
00005EFCEFFFF2
0008EE999EF950
0002F7001FE000
000BE1004FA000
005F60006F7000
05EB00006FC920
4EA100001DFA00
000000004E5000
00000002E90000
00000008F51000
00000006FE5000
00000000100000
ENDCHAR
STARTCHAR aogonek
ENCODING 261
SWIDTH 541 0
DWIDTH 10 0
BBX 10 14 0 -5
BITMAP
0002AEC6D8
003EC25FF6
02ED103FD0
0AF5009F70
1FE001EF10
5FB007FA00
6F902EF700
3FA2D8FB61
08EC41CFB0
000002D900
00000CC000
00005F8100
00003FE700
0000010000
ENDCHAR
STARTCHAR Cacute
ENCODING 262
SWIDTH 533 0
DWIDTH 10 0
BBX 13 18 0 0
BITMAP
00000000005900
0000000000DF10
000000000AF600
00000000262000
0000018DEB1000
00003ED51BA000
0003EE200BD000
001DF4004FC000
009F9003EF6000
02FF200CFB0000
07FA0002600000
0CF50000000000
0FF20000000000
1FF00000000000
1FF00000000000
0EF20006100000
07F913BF200000
007DFEA3000000
ENDCHAR
STARTCHAR cacute
ENCODING 263
SWIDTH 468 0
DWIDTH 8 0
BBX 10 15 0 0
BITMAP
0000000030
00000002F8
00000008F7
0000004FB0
000001D700
0000000000
0002AEE800
005EC27F20
03FE109F30
0BF605FD00
2FE1028200
5FB0000000
5FA0003000
1EE229B000
04CFD81000
ENDCHAR
STARTCHAR Ccircumflex
ENCODING 264
SWIDTH 533 0
DWIDTH 10 0
BBX 13 18 0 0
BITMAP
00000000038000
000000005EF500
0000003BE6ED10
00000026103710
0000018DEB1000
00003ED51BA000
0003EE200BD000
001DF4004FC000
009F9003EF6000
02FF200CFB0000
07FA0002600000
0CF50000000000
0FF20000000000
1FF00000000000
1FF00000000000
0EF20006100000
07F913BF200000
007DFEA3000000
ENDCHAR
STARTCHAR ccircumflex
ENCODING 265
SWIDTH 468 0
DWIDTH 8 0
BBX 10 14 0 0
BITMAP
0000000870
000001AFE0
00004DB9F3
0005E702D7
0000000000
0002AEE800
005EC27F20
03FE109F30
0BF605FD00
2FE1028200
5FB0000000
5FA0003000
1EE229B000
04CFD81000
ENDCHAR
STARTCHAR Cdotaccent
ENCODING 266
SWIDTH 533 0
DWIDTH 10 0
BBX 11 17 0 0
BITMAP
00000002DD20
00000005FF30
000000007500
0000018DEB10
00003ED51BA0
0003EE200BD0
001DF4004FC0
009F9003EF60
02FF200CFB00
07FA00026000
0CF500000000
0FF200000000
1FF000000000
1FF000000000
0EF200061000
07F913BF2000
007DFEA30000
ENDCHAR
STARTCHAR cdotaccent
ENCODING 267
SWIDTH 468 0
DWIDTH 8 0
BBX 9 14 0 0
BITMAP
000002DD20
000005FF30
0000007500
0000000000
0000000000
0002AEE800
005EC27F20
03FE109F30
0BF605FD00
2FE1028200
5FB0000000
5FA0003000
1EE229B000
04CFD81000
ENDCHAR
STARTCHAR Ccaron
ENCODING 268
SWIDTH 533 0
DWIDTH 10 0
BBX 13 18 0 0
BITMAP
00000006400150
0000001BF65DA0
00000002FFB500
00000000320000
0000018DEB1000
00003ED51BA000
0003EE200BD000
001DF4004FC000
009F9003EF6000
02FF200CFB0000
07FA0002600000
0CF50000000000
0FF20000000000
1FF00000000000
1FF00000000000
0EF20006100000
07F913BF200000
007DFEA3000000
ENDCHAR
STARTCHAR ccaron
ENCODING 269
SWIDTH 468 0
DWIDTH 8 0
BBX 11 14 0 0
BITMAP
00002B5005A0
00000DD07F70
000008FBD500
000003C60000
000000000000
0002AEE80000
005EC27F2000
03FE109F3000
0BF605FD0000
2FE102820000
5FB000000000
5FA000300000
1EE229B00000
04CFD8100000
ENDCHAR
STARTCHAR Dcaron
ENCODING 270
SWIDTH 630 0
DWIDTH 11 0
BBX 12 18 0 0
BITMAP
000000550005
000000AF74CC
0000001EFC61
000000033000
005ADEFDA300
01EF83129F70
002245000AF3
0003FE1005F8
000BF70005FA
003FE10006F9
009F80000AF6
01EF20001FF1
05FC00009F90
0AF60004FE10
0EF2002EF400
1FD003EF5000
1FB28FD30000
05DEC6000000
ENDCHAR
STARTCHAR dcaron
ENCODING 271
SWIDTH 557 0
DWIDTH 10 0
BBX 15 15 0 0
BITMAP
0000000002D83E80
0000000009F53FA0
000000000EE03F50
000000005F90AA00
00000000AF417000
00000000EE000000
00018DE9FA000000
001CD42EF5000000
00CE300EF1000000
07F8004FB0000000
0DF200AF70000000
2FD003FF30000000
3FB00CFE00000000
1FD1ABDD12000000
07ED807ED3000000
ENDCHAR
STARTCHAR Dcroat
ENCODING 272
SWIDTH 630 0
DWIDTH 11 0
BBX 12 14 0 0
BITMAP
006ADFFD9200
03FF8213AF50
005322000CE1
0004FE0007F6
000CF70006F8
004FE10008F7
3EFFFFF30CF4
39FF98602FE0
06FA0000AF70
0BF50005FD00
0FE1004EE200
3FB005EE3000
3F929FC20000
07EEB5000000
ENDCHAR
STARTCHAR dcroat
ENCODING 273
SWIDTH 557 0
DWIDTH 10 0
BBX 13 15 0 0
BITMAP
0000000002D800
0000000009F500
000001CFFFFD10
000000338F8100
00000000BF2000
00000000ED0000
00018DE9F80000
001CD42EF40000
00CE300EE00000
07F8004FA00000
0DF200AF600000
2FD003FF300000
3FB00CFE000000
1FD1ABDD120000
07ED807ED30000
ENDCHAR
STARTCHAR Emacron
ENCODING 274
SWIDTH 509 0
DWIDTH 9 0
BBX 12 16 0 0
BITMAP
00000BEEEEC1
000001111100
000017CED900
0002DF921E60
001DF6003F70
007FA004EF20
00CF302FF700
00EF00064000
00AF21000000
001DFFA00000
00AFE7200000
09FD20000000
1FF300010000
4FC0007C0000
1EE229F70000
03CEEB400000
ENDCHAR
STARTCHAR emacron
ENCODING 275
SWIDTH 471 0
DWIDTH 8 0
BBX 10 12 0 0
BITMAP
001BEEEEC1
0001111100
0000000000
00029EE700
003EB2AF10
01EE10BF20
09F704FD00
1FF48FD300
3FFDB71000
3FB0002000
0DE227E200
03CEEB4000
ENDCHAR
STARTCHAR Ebreve
ENCODING 276
SWIDTH 509 0
DWIDTH 9 0
BBX 12 18 0 0
BITMAP
000000520031
000003F804D2
000000AFEB20
000000010000
000017CED900
0002DF921E60
001DF6003F70
007FA004EF20
00CF302FF700
00EF00064000
00AF21000000
001DFFA00000
00AFE7200000
09FD20000000
1FF300010000
4FC0007C0000
1EE229F70000
03CEEB400000
ENDCHAR
STARTCHAR ebreve
ENCODING 277
SWIDTH 471 0
DWIDTH 8 0
BBX 10 14 0 0
BITMAP
0001C50083
0002F906C0
00009FEA10
0000010000
0000000000
00029EE700
003EB2AF10
01EE10BF20
09F704FD00
1FF48FD300
3FFDB71000
3FB0002000
0DE227E200
03CEEB4000
ENDCHAR
STARTCHAR Edotaccent
ENCODING 278
SWIDTH 509 0
DWIDTH 9 0
BBX 11 17 0 0
BITMAP
0000007EA000
000000BFC000
000000382000
000017CED900
0002DF921E60
001DF6003F70
007FA004EF20
00CF302FF700
00EF00064000
00AF21000000
001DFFA00000
00AFE7200000
09FD20000000
1FF300010000
4FC0007C0000
1EE229F70000
03CEEB400000
ENDCHAR
STARTCHAR edotaccent
ENCODING 279
SWIDTH 471 0
DWIDTH 8 0
BBX 9 14 0 0
BITMAP
00000AE600
00000FF700
0000058100
0000000000
0000000000
00029EE700
003EB2AF10
01EE10BF20
09F704FD00
1FF48FD300
3FFDB71000
3FB0002000
0DE227E200
03CEEB4000
ENDCHAR
STARTCHAR Eogonek
ENCODING 280
SWIDTH 509 0
DWIDTH 9 0
BBX 11 19 0 -5
BITMAP
000017CED900
0002DF921E60
001DF6003F70
007FA004EF20
00CF302FF700
00EF00064000
00AF21000000
001DFFA00000
00AFE7200000
09FD20000000
2FF300010000
4FC0007C0000
1EE229F80000
03BEFD600000
000AC1000000
009E20000000
01FC10000000
00DFA0000000
000100000000
ENDCHAR
STARTCHAR eogonek
ENCODING 281
SWIDTH 471 0
DWIDTH 8 0
BBX 9 14 0 -5
BITMAP
00029EE700
003EB2AF20
01EE10AF30
09F704FD00
1EF48FE300
3FFDB61000
3FB0001000
0DE227E200
03BFFF7000
0007E40000
005F500000
00CF110000
00AFC20000
0001000000
ENDCHAR
STARTCHAR Ecaron
ENCODING 282
SWIDTH 509 0
DWIDTH 9 0
BBX 12 18 0 0
BITMAP
000002620032
000004FE29F4
0000008FE930
000000051000
000017CED900
0002DF921E60
001DF6003F70
007FA004EF20
00CF302FF700
00EF00064000
00AF21000000
001DFFA00000
00AFE7200000
09FD20000000
1FF300010000
4FC0007C0000
1EE229F70000
03CEEB400000
ENDCHAR
STARTCHAR ecaron
ENCODING 283
SWIDTH 471 0
DWIDTH 8 0
BBX 11 14 0 0
BITMAP
000099002C10
00008F34EC00
00004FBE8100
00000C820000
000000000000
00029EE70000
003EB2AF1000
01EE10BF2000
09F704FD0000
1FF48FD30000
3FFDB7100000
3FB000200000
0DE227E20000
03CEEB400000
ENDCHAR
STARTCHAR Gcircumflex
ENCODING 284
SWIDTH 598 0
DWIDTH 11 0
BBX 13 18 0 0
BITMAP
00000000038000
000000005EF400
0000003BE6EC00
00000036103710
0000018DEB2000
00002DE61AB000
0003EE300AE000
000DF5003FD000
008FA003EF7000
01FF300BFC0000
07FB0002610000
0BF60012001000
0EF202EFEF8000
1FF0017FFB1000
1FE0000F600000
0DF1005E100000
07F915E5000000
007EEB40000000
ENDCHAR
STARTCHAR gcircumflex
ENCODING 285
SWIDTH 526 0
DWIDTH 9 0
BBX 10 19 0 -5
BITMAP
0000000780
0000009FF1
00003CD8F4
0004E811D9
0000000000
00029EE462
003EC24EF7
01EE100EF2
09F7005FB0
1FF100BF60
4FC004FF20
4FA01DFC00
2FC2BDF700
07ED79F200
00001EB000
00008F3000
0004F90000
005EC00000
09E9000000
ENDCHAR
STARTCHAR Gbreve
ENCODING 286
SWIDTH 598 0
DWIDTH 11 0
BBX 13 18 0 0
BITMAP
00000003500140
0000000CD12B60
00000006EFD600
00000000010000
0000018DEB2000
00002DE61AB000
0003EE300AE000
000DF5003FD000
008FA003EF7000
01FF300BFC0000
07FB0002610000
0BF60012001000
0EF202EFEF8000
1FF0017FFB1000
1FE0000F600000
0DF1005E100000
07F915E5000000
007EEB40000000
ENDCHAR
STARTCHAR gbreve
ENCODING 287
SWIDTH 526 0
DWIDTH 9 0
BBX 11 19 0 -5
BITMAP
00002E200A10
00005F708A00
00001BFE8000
000000100000
000000000000
00029EE46200
003EC24EF700
01EE100EF200
09F7005FB000
1FF100BF6000
4FC004FF2000
4FA01DFC0000
2FC2BDF70000
07ED79F20000
00001EB00000
00008F300000
0004F9000000
005EC0000000
09E900000000
ENDCHAR
STARTCHAR Gdotaccent
ENCODING 288
SWIDTH 598 0
DWIDTH 11 0
BBX 11 17 0 0
BITMAP
00000002DD20
00000005FF20
000000008500
0000018DEB20
00002DE61AB0
0003EE300AE0
000DF5003FD0
008FA003EF70
01FF300BFC00
07FB00026100
0BF600120010
0EF202EFEF80
1FF0017FFB10
1FE0000F6000
0DF1005E1000
07F915E50000
007EEB400000
ENDCHAR
STARTCHAR gdotaccent
ENCODING 289
SWIDTH 526 0
DWIDTH 9 0
BBX 10 19 0 -5
BITMAP
000001CE30
000003FF50
0000006600
0000000000
0000000000
00029EE462
003EC24EF7
01EE100EF2
09F7005FB0
1FF100BF60
4FC004FF20
4FA01DFC00
2FC2BDF700
07ED79F200
00001EB000
00008F3000
0004F90000
005EC00000
09E9000000
ENDCHAR
STARTCHAR Gcommaaccent
ENCODING 290
SWIDTH 598 0
DWIDTH 11 0
BBX 11 19 0 -5
BITMAP
0000018DEB10
00002DE61AA0
0003EE3009E0
000DF5001EE0
008FA000AFA0
01FF3008FF30
07FB0009F700
0BF600002000
0EF200241120
1FF002EFFF80
1FE0002FEA10
0DF1003F5000
07F914D90000
007EEC600000
000100000000
00DF20000000
00BF20000000
00CA00000000
07A100000000
ENDCHAR
STARTCHAR gcommaaccent
ENCODING 291
SWIDTH 526 0
DWIDTH 9 0
BBX 10 19 0 -5
BITMAP
0000001980
000000AD00
000001FE10
0000006600
0000000000
00029EE462
003EC24EF7
01EE100EF2
09F7005FB0
1FF100BF60
4FC004FF20
4FA01DFC00
2FC2BDF700
07ED79F200
00001EB000
00008F3000
0004F90000
005EC00000
09E9000000
ENDCHAR
STARTCHAR Hcircumflex
ENCODING 292
SWIDTH 668 0
DWIDTH 12 0
BBX 14 18 -1 0
BITMAP
00000000038000
000000005EF500
0000003BE6ED10
00000026103710
002CEF800002E6
00183FE00005F9
00002FD00009F5
00005FA0000DF1
00009F60003FB0
0000DF20008F60
0017FFCCDEFF80
003DF71005F600
000DF1000AF200
004FA0000EC000
00BF30004F8000
04FA00009F4000
1DE10000AF4300
7D3000005ED400
ENDCHAR
STARTCHAR hcircumflex
ENCODING 293
SWIDTH 555 0
DWIDTH 10 0
BBX 10 18 0 0
BITMAP
000004A100
00006FF400
002AE7F800
01EA20AD00
0001D70000
0003FB0000
0006F90000
000AF50000
000DF10000
003FC08EB0
007F78EFF3
00CF6D2CF2
03FCD23FC0
09FE40AF60
0EF602FE00
5FB006F900
CF4007F730
BA0002DE80
ENDCHAR
STARTCHAR Hbar
ENCODING 294
SWIDTH 668 0
DWIDTH 12 0
BBX 15 14 -1 0
BITMAP
002CEE700001E500
00183EE00004FA00
00001FE00007F800
00038FD0000AF500
00AFFFEDDEEFFE90
0023BF51117F7100
0000EFBCDEFFB000
003DF83227FB3000
000CF20009F30000
002FA0000ED00000
009F30004F900000
02FA00008F500000
1CE20000AF430000
7D3000005ED40000
ENDCHAR
STARTCHAR hbar
ENCODING 295
SWIDTH 555 0
DWIDTH 10 0
BBX 10 15 0 0
BITMAP
0000AC0000
0000EF0000
009EFFED20
0017F81000
000AF40000
000EE00000
003FA08EB0
008F58EFF4
00CF5D2BF2
02FCC23FC0
08FE30AF60
0DF602FE00
5FB006F900
CF4007F730
BB0002DE80
ENDCHAR
STARTCHAR Itilde
ENCODING 296
SWIDTH 327 0
DWIDTH 6 0
BBX 11 17 -1 0
BITMAP
00007DC40A10
000773CFD500
000000010000
000AEE900000
00065BF30000
00000DF20000
00001FF00000
00004FC00000
00008F800000
0000DF300000
0002FD000000
0008F8000000
000DF2000000
005FA0000000
00CF20000000
08F700000000
1E8000000000
ENDCHAR
STARTCHAR itilde
ENCODING 297
SWIDTH 286 0
DWIDTH 5 0
BBX 8 14 0 0
BITMAP
009E700A
0958F367
0B00CE80
00000000
00000000
00CF6000
009F6000
00BF1000
02FA0000
08F30000
0EB00000
5F600000
7FD80000
2DE50000
ENDCHAR
STARTCHAR Imacron
ENCODING 298
SWIDTH 327 0
DWIDTH 6 0
BBX 10 16 -1 0
BITMAP
0005DEEEE7
0000111110
000AEE9000
00065BF300
00000DF200
00001FF000
00004FC000
00008F8000
0000DF3000
0002FD0000
0008F80000
000DF20000
005FA00000
00CF200000
08F7000000
1E80000000
ENDCHAR
STARTCHAR imacron
ENCODING 299
SWIDTH 286 0
DWIDTH 5 0
BBX 8 12 0 0
BITMAP
1BEEEEC1
01111100
00000000
00CF6000
009F6000
00BF1000
02FA0000
08F30000
0EB00000
5F600000
7FD80000
2DE50000
ENDCHAR
STARTCHAR Ibreve
ENCODING 300
SWIDTH 327 0
DWIDTH 6 0
BBX 10 18 -1 0
BITMAP
0000160005
00009F2199
00003EFE70
0000001000
000AEE9000
00065BF300
00000DF200
00001FF000
00004FC000
00008F8000
0000DF3000
0002FD0000
0008F80000
000DF20000
005FA00000
00CF200000
08F7000000
1E80000000
ENDCHAR
STARTCHAR ibreve
ENCODING 301
SWIDTH 286 0
DWIDTH 5 0
BBX 8 14 0 0
BITMAP
00B70066
00FC04D1
007FFB20
00001000
00000000
00CF6000
009F6000
00BF1000
02FA0000
08F30000
0EB00000
5F600000
7FD80000
2DE50000
ENDCHAR
STARTCHAR Iogonek
ENCODING 302
SWIDTH 327 0
DWIDTH 6 0
BBX 10 18 -3 -4
BITMAP
00000AEEA0
0000065BF3
0000000DF2
0000001FE0
0000005FB0
000000AF60
000000EF20
000004FC00
00000AF500
00002FD000
00009F6000
0004FB0000
001EC10000
01B9000000
0CB0000000
6F61000000
5FE6000000
0100000000
ENDCHAR
STARTCHAR iogonek
ENCODING 303
SWIDTH 297 0
DWIDTH 5 0
BBX 7 19 -1 -5
BITMAP
00006EB0
0000AFD0
00002830
00000000
00000000
000AF900
0007F900
0008F400
000DD000
005F7000
00BF1000
02FA0000
04FB5000
01EFA000
01B90000
0CC00000
5F710000
4FE70000
01000000
ENDCHAR
STARTCHAR Idotaccent
ENCODING 304
SWIDTH 327 0
DWIDTH 6 0
BBX 8 17 -1 0
BITMAP
00001CE4
00002FF5
00000670
000AEE90
00065BF3
00000DF2
00001FF0
00004FC0
00008F80
0000DF30
0002FD00
0008F800
000DF200
005FA000
00CF2000
08F70000
1E800000
ENDCHAR
STARTCHAR dotlessi
ENCODING 305
SWIDTH 286 0
DWIDTH 5 0
BBX 5 9 0 0
BITMAP
00CF60
009F60
00BF10
02FA00
08F300
0EB000
5F6000
7FD800
2DE500
ENDCHAR
STARTCHAR IJ
ENCODING 306
SWIDTH 720 0
DWIDTH 13 0
BBX 15 19 -1 -5
BITMAP
000AEE9006BEEA20
00065BF3CFD49F70
00000DF3DB10AF60
00001FF00000DF40
00004FC00003FF10
00008F800007FC00
0000DF30000CF700
0002FD00001FF200
0008F800006FC000
000DF20000DF6000
005FA00004FE1000
00CF20000AF80000
08F700002FE10000
1E800000AF800000
00000004FD100000
0000001DF4000000
000000AF70000000
00001BF800000000
0001DC5000000000
ENDCHAR
STARTCHAR ij
ENCODING 307
SWIDTH 567 0
DWIDTH 10 0
BBX 11 19 0 -5
BITMAP
0008F801CE40
000CFA02FF50
000381006600
000000000000
000000000000
00CF600CF600
009F600AF700
00BF100AF500
02FA000CF200
08F3001FD000
0EB0005F9000
5F60009F4000
7FD800EE0000
2DE505F80000
00000CE10000
00004F800000
0001DC000000
001BD2000000
00BB20000000
ENDCHAR
STARTCHAR Jcircumflex
ENCODING 308
SWIDTH 393 0
DWIDTH 7 0
BBX 13 23 -3 -5
BITMAP
00000000001000
0000000007F400
00000002BDFB00
0000003E917E40
000005BEEB2000
0000AFD57F9000
0000CC109F8000
00000000CF5000
00000001FF2000
00000005FD0000
0000000AF80000
0000000EF30000
0000005FD00000
000000BF800000
000003FF200000
000009FA000000
00001EF3000000
00009F90000000
0003FE10000000
000CF500000000
009F8000000000
1AF90000000000
DD600000000000
ENDCHAR
STARTCHAR jcircumflex
ENCODING 309
SWIDTH 282 0
DWIDTH 5 0
BBX 10 19 -3 -5
BITMAP
0000000780
0000009FF0
00003CC8F4
0004E801D9
0000000000
00001DE400
00000CF500
00000CF300
00000EF000
00003FB000
00007F7000
0000CF2000
0002FC0000
0008F60000
000ED00000
007F600000
02EB000000
1CC1000000
DA10000000
ENDCHAR
STARTCHAR Kcommaaccent
ENCODING 310
SWIDTH 616 0
DWIDTH 11 0
BBX 13 19 -1 -5
BITMAP
005DFC20008E30
00586F90007FA0
00007F80009F90
0000AF6001EF30
0000DF300AF700
0002FE009F8000
0007FA1AE50000
000BF8CC200000
002FFDF4000000
007FA3FE200000
00DF408FB00000
06FB001EF60000
3EE20005FE4000
AD3000006DE900
00001000000000
0007F800000000
0004F900000000
0006E200000000
001C4000000000
ENDCHAR
STARTCHAR kcommaaccent
ENCODING 311
SWIDTH 497 0
DWIDTH 9 0
BBX 9 20 0 -5
BITMAP
0000440000
0000CF0000
0000FD0000
0004FA0000
0007F50000
000CF10000
001FB04EB0
005F501FF0
00AE11BF90
01F95DE700
06FEF61000
0CFCF40000
4FA4FC1000
BF30BFC950
CA001AEA10
0011000000
04FB000000
01FC000000
03F5000000
0B60000000
ENDCHAR
STARTCHAR kgreenlandic
ENCODING 312
SWIDTH 497 0
DWIDTH 9 0
BBX 10 9 0 0
BITMAP
00CE303EC0
00AF600FF1
00BF208FC0
01FD1AFC20
07FDEC6000
0DFEF30000
4FE4FA0000
CF70AF7120
BC001AEC20
ENDCHAR
STARTCHAR Lacute
ENCODING 313
SWIDTH 517 0
DWIDTH 9 0
BBX 12 18 -1 0
BITMAP
000000000077
0000000002FD
000000001CE4
000000003610
0000002AEC30
000001DD37D0
00000BF406F1
00004FB00CF1
0000BF509FA0
0003FE0AFE20
0008F80BD400
000DF3000000
004FC0000000
009F50000000
01ED00000000
07F402441000
3FDBEFFFE100
2EDA8668D400
ENDCHAR
STARTCHAR lacute
ENCODING 314
SWIDTH 279 0
DWIDTH 5 0
BBX 8 18 0 0
BITMAP
00000068
000001EE
00000BE5
00002610
0001E400
0005F700
0008F400
000DF100
002FB000
007F6000
00CF2000
02FC0000
07F70000
0CF20000
2FC00000
6F800000
6F730000
1CE80000
ENDCHAR
STARTCHAR Lcommaaccent
ENCODING 315
SWIDTH 517 0
DWIDTH 9 0
BBX 12 19 -1 -5
BITMAP
0000002AEC30
000001DD37D0
00000BF406F1
00004FB00CF1
0000BF509FA0
0003FE0AFE20
0008F80BD400
000DF3000000
004FC0000000
009F50000000
01ED00000000
07F402441000
3FDBEFFFE100
2EDA8668D400
000100000000
00BF40000000
008F40000000
00AC00000000
05B100000000
ENDCHAR
STARTCHAR lcommaaccent
ENCODING 316
SWIDTH 279 0
DWIDTH 5 0
BBX 6 20 0 -5
BITMAP
000062
0002FB
0005F9
0008F6
000CF2
001FC0
006F70
00BF20
01FC00
06F700
0BF200
1FD000
5F9000
6F7400
1CE700
010000
6FA000
3FA000
5F3000
C50000
ENDCHAR
STARTCHAR Lcaron
ENCODING 317
SWIDTH 517 0
DWIDTH 9 0
BBX 15 17 -1 0
BITMAP
0000000000004E60
0000000000005F80
0000000000005F30
0000002AEC30C800
000001DD37D36000
00000BF406F10000
00004FB00CF10000
0000BF509FA00000
0003FE0AFE200000
0008F80BD4000000
000DF30000000000
004FC00000000000
009F500000000000
01ED000000000000
07F4024410000000
3FDBEFFFE1000000
2EDA8668D4000000
ENDCHAR
STARTCHAR lcaron
ENCODING 318
SWIDTH 467 0
DWIDTH 8 0
BBX 10 15 0 0
BITMAP
0001D701DB
0003FB00FD
0006F801F8
0009F508C1
000DF10710
003FB00000
007F600000
00CF100000
02FB000000
07F6000000
0CF2000000
2FC0000000
5F90000000
5F78000000
1CE5000000
ENDCHAR
STARTCHAR Ldot
ENCODING 319
SWIDTH 668 0
DWIDTH 12 0
BBX 14 14 -1 0
BITMAP
0000002AEC3000
000001DD37D000
00000BF406F100
00004FB00CF100
0000BF509FA000
0003FE0AFE2000
0008F80BD40220
000DF300003FF3
004FC000004FF2
009F5000000430
01ED0000000000
07F40244100000
3FDBEFFFE10000
2EDA8668D40000
ENDCHAR
STARTCHAR ldot
ENCODING 320
SWIDTH 489 0
DWIDTH 9 0
BBX 9 15 0 0
BITMAP
0001D70000
0003FB0000
0006F80000
0009F50000
000DF10000
003FB00000
007F600000
00CF105610
02FB02FF90
07F601EF50
0CF2001200
2FC0000000
5F90000000
5F78000000
1CE5000000
ENDCHAR
STARTCHAR Lslash
ENCODING 321
SWIDTH 517 0
DWIDTH 9 0
BBX 12 14 -1 0
BITMAP
0000002AEC20
000002DD37C0
00000BF505F1
00004FD00AF1
0000CF704FD0
0003FF24EF60
0008FB0EFB00
000DF6058100
06DFFEB10000
1ADF72200000
01ED00000000
07F501330000
3FDAEFFFD100
2EDA8668D400
ENDCHAR
STARTCHAR lslash
ENCODING 322
SWIDTH 279 0
DWIDTH 5 0
BBX 9 15 0 0
BITMAP
001D610000
001CFFEA10
0004F90000
0008F50000
000DF10000
002FB00000
007F600000
00CF200000
02FC000000
07F7000000
0CF2000000
1FD0000000
5F90000000
6F73000000
1CE8000000
ENDCHAR
STARTCHAR Nacute
ENCODING 323
SWIDTH 708 0
DWIDTH 13 0
BBX 14 18 0 0
BITMAP
00000000000030
000000000005F5
00000000001DE3
0000000000BB30
000006E9000BE4
00005FF90008FD
0001EDF70004FE
000AD7F60004FB
002F68F60007F5
009E07F7000CE1
01E906F9002F70
06F305FB009E10
0BE002FE01E600
1F9000EF37D000
4F6000AF7D6000
8F20005FED0000
9E00000CF80000
6C000003D50000
ENDCHAR
STARTCHAR nacute
ENCODING 324
SWIDTH 561 0
DWIDTH 10 0
BBX 10 15 0 0
BITMAP
0000000030
00000006F5
0000000CF4
0000008F70
000004C500
0000000000
00CE308EB1
00AF69EEF5
00BF8E2AF4
01FDE32FE0
06FF408F80
0CF601EF10
4FC004FA00
BF4006F820
BB0001CE90
ENDCHAR
STARTCHAR Ncommaaccent
ENCODING 325
SWIDTH 708 0
DWIDTH 13 0
BBX 14 19 0 -5
BITMAP
000006E9000BE4
00005FF90008FD
0001EDF70004FE
000AD7F60004FB
002F68F60007F5
009E07F7000CE1
01E906F9002F70
06F305FB009E10
0BE002FE01E600
1F9000EF37D000
4F6000AF7D6000
8F20005FED0000
9E00000CF80000
6C000003D50000
00000100000000
00008F60000000
00006F70000000
00008E10000000
0002C300000000
ENDCHAR
STARTCHAR ncommaaccent
ENCODING 326
SWIDTH 561 0
DWIDTH 10 0
BBX 10 14 0 -5
BITMAP
00CE308EB1
00AF69EEF5
00BF8E2AF4
01FDE32FE0
06FF408F80
0CF601EF10
4FC004FA00
BF4006F820
BB0001CE90
0001000000
01EE100000
00CF100000
01D8000000
0890000000
ENDCHAR
STARTCHAR Ncaron
ENCODING 327
SWIDTH 708 0
DWIDTH 13 0
BBX 15 17 0 0
BITMAP
000000008E605D10
000000001DFDC500
0000000004820000
000006E9000BE400
00005FF90008FD00
0001EDF70004FE00
000AD7F60004FB00
002F68F60007F500
009E07F7000CE100
01E906F9002F7000
06F305FB009E1000
0BE002FE01E60000
1F9000EF37D00000
4F6000AF7D600000
8F20005FED000000
9E00000CF8000000
6C000003D5000000
ENDCHAR
STARTCHAR ncaron
ENCODING 328
SWIDTH 561 0
DWIDTH 10 0
BBX 11 14 0 0
BITMAP
00001B5004A0
00000DD07F70
000008FBD500
000003C60000
000000000000
00CE308EB100
00AF69EEF500
00BF8E2AF400
01FDE32FE000
06FF408F8000
0CF601EF1000
4FC004FA0000
BF4006F82000
BB0001CE9000
ENDCHAR
STARTCHAR Eng
ENCODING 330
SWIDTH 698 0
DWIDTH 13 0
BBX 14 19 0 -5
BITMAP
000008E7001DD3
00008FF6000AFA
0003FDF40006FB
000CBAF30006F9
005F4AF30008F6
00CC0AF4000BF2
03F709F6000ED0
08F108F9004F70
0DB005FC009F10
3F7002FF10EA00
7F3000DF55F300
AF00007FCBA000
CC00001DFF2000
89000009F80000
0000003FC00000
000001DE200000
00001BF3000000
0002CE40000000
002EA200000000
ENDCHAR
STARTCHAR eng
ENCODING 331
SWIDTH 561 0
DWIDTH 10 0
BBX 10 14 0 -5
BITMAP
00CE308EC1
00AF69EFF5
00BF8E29F4
01FDE30BF1
06FF401FB0
0CF6006F60
4FC000BF10
BF4003FA00
BB000BF300
00004FA000
0000CE2000
0008F60000
005F900000
04E7000000
ENDCHAR
STARTCHAR Omacron
ENCODING 332
SWIDTH 655 0
DWIDTH 12 0
BBX 12 16 1 0
BITMAP
000004DEEEE8
000000111110
000007CFD800
0002CF715F70
001DF5000DE0
00BF80000CF1
05FD00000DF1
0DF600002FE0
3FD000006FA0
8F900000CF50
BF400004FE00
DF10000BF600
DE00006FC000
BF0003ED2000
4F815ED20000
05DFD8100000
ENDCHAR
STARTCHAR omacron
ENCODING 333
SWIDTH 514 0
DWIDTH 9 0
BBX 10 12 0 0
BITMAP
0001CEEEEB
0000111110
0000000000
0002AEE800
004FC28F50
02FE205F80
0AF7007F80
1FF100BF50
4FB003FE10
5F900BF600
1EB19F9000
05DFC50000
ENDCHAR
STARTCHAR Obreve
ENCODING 334
SWIDTH 655 0
DWIDTH 12 0
BBX 12 18 1 0
BITMAP
000000160005
0000008F318A
0000003DFE80
000000001000
000007CFD800
0002CF715F70
001DF5000DE0
00BF80000CF1
05FD00000DF1
0DF600002FE0
3FD000006FA0
8F900000CF50
BF400004FE00
DF10000BF600
DE00006FC000
BF0003ED2000
4F815ED20000
05DFD8100000
ENDCHAR
STARTCHAR obreve
ENCODING 335
SWIDTH 514 0
DWIDTH 9 0
BBX 11 14 0 0
BITMAP
00002D200A10
00005F708B00
00000BFE9000
000000100000
000000000000
0002AEE80000
004FC28F5000
02FE205F8000
0AF7007F8000
1FF100BF5000
4FB003FE1000
5F900BF60000
1EB19F900000
05DFC5000000
ENDCHAR
STARTCHAR Ohungarumlaut
ENCODING 336
SWIDTH 655 0
DWIDTH 12 0
BBX 13 18 1 0
BITMAP
00000001300400
00000007F05F20
0000001DA0BC00
000000B909A100
000007CFD80000
0002CF715F7000
001DF5000DE000
00BF80000CF100
05FD00000DF100
0DF600002FE000
3FD000006FA000
8F900000CF5000
BF400004FE0000
DF10000BF60000
DE00006FC00000
BF0003ED200000
4F815ED2000000
05DFD810000000
ENDCHAR
STARTCHAR ohungarumlaut
ENCODING 337
SWIDTH 514 0
DWIDTH 9 0
BBX 11 15 0 0
BITMAP
000000300300
000003F31F50
00000BE19F20
00006F44F600
0003C42C5000
000000000000
0002AEE80000
004FC28F5000
02FE205F8000
0AF7007F8000
1FF100BF5000
4FB003FE1000
5F900BF60000
1EB19F900000
05DFC5000000
ENDCHAR
STARTCHAR OE
ENCODING 338
SWIDTH 900 0
DWIDTH 16 0
BBX 17 14 2 0
BITMAP
000018DFD729DED800
0003DE617FFF822F50
003EF3002FF5003F60
00DF60009F9004EE20
07FB0000DF203FF600
1EF40000EE00064000
5FC00000AF21000000
AF6000002DFFA00000
DF200000BFE6100000
FE000009FC10000000
FC00004FF200010000
DD0003EFC0008B0000
6F616EEFE34BF60000
07DFD815CFEA400000
ENDCHAR
STARTCHAR oe
ENCODING 339
SWIDTH 777 0
DWIDTH 14 0
BBX 13 9 1 0
BITMAP
0017DFB12AEE50
01CF62FCEA1CE0
0BF700EFD00DF0
4FD001FF506FB0
AF6005FE28FD20
DF200CFFEB6100
EF006FF8000100
AF35EFFD228E00
2BFEA36DFEA300
ENDCHAR
STARTCHAR Racute
ENCODING 340
SWIDTH 623 0
DWIDTH 11 0
BBX 13 19 -1 -1
BITMAP
00000000002000
0000000001F900
000000000AF600
000000007C5000
00017BDFEB5000
000DFC5215F800
0007669000AF20
00001EE000AF40
00007F9001EF10
0000DF400BF900
0003FD03CFB100
0008FDBFE70000
000DFBFC100000
004FD0BF400000
00BF604FD00000
03FC000CF60000
1CF30004FE4100
6D4000006FF700
00000000001000
ENDCHAR
STARTCHAR racute
ENCODING 341
SWIDTH 407 0
DWIDTH 7 0
BBX 9 15 0 0
BITMAP
0000000300
0000007F40
000000DF30
000009F600
00005C4000
0000000000
02DD12CD00
00DF4DFF10
00DE9B7900
01FCB00000
06FE200000
0BF7000000
2FE0000000
8F70000000
7E10000000
ENDCHAR
STARTCHAR Rcommaaccent
ENCODING 342
SWIDTH 623 0
DWIDTH 11 0
BBX 13 19 -1 -5
BITMAP
00017BDFEB5000
000DFC5215F800
0007669000AF20
00001EE000AF40
00007F9001EF10
0000DF400BF900
0003FD03CFB100
0008FDBFE70000
000DFBFC100000
004FD0BF400000
00BF604FD00000
03FC000CF60000
1CF30004FE4100
6D4000006FF700
00001000001000
000AF500000000
0008F500000000
000AD000000000
004B2000000000
ENDCHAR
STARTCHAR rcommaaccent
ENCODING 343
SWIDTH 407 0
DWIDTH 7 0
BBX 10 14 -1 -5
BITMAP
002DD12CC0
000DF3DFF1
000DE9B790
001FCB0000
006FE20000
00BF600000
02FD000000
08F7000000
07E1000000
0100000000
6FA0000000
3FA0000000
5F30000000
C500000000
ENDCHAR
STARTCHAR Rcaron
ENCODING 344
SWIDTH 623 0
DWIDTH 11 0
BBX 13 19 -1 -1
BITMAP
00000026200320
0000003EE29F40
00000008FE9300
00000000510000
00017BDFEB5000
000DFC5215F800
0007669000AF20
00001EE000AF40
00007F9001EF10
0000DF400BF900
0003FD03CFB100
0008FDBFE70000
000DFBFC100000
004FD0BF400000
00BF604FD00000
03FC000CF60000
1CF30004FE4100
6D4000006FF700
00000000001000
ENDCHAR
STARTCHAR rcaron
ENCODING 345
SWIDTH 407 0
DWIDTH 7 0
BBX 10 14 0 0
BITMAP
0002C50069
0000EC08F6
00009FCD50
00004C5000
0000000000
02DD12CD00
00DF4DFF10
00DE9B7900
01FCB00000
06FE200000
0BF7000000
2FE0000000
8F70000000
7E10000000
ENDCHAR
STARTCHAR Sacute
ENCODING 346
SWIDTH 474 0
DWIDTH 9 0
BBX 11 18 0 0
BITMAP
000000000A40
000000005FA0
00000003EC20
000000055000
00004CFD7000
0007F813E600
003FA000CC00
00AF4001EC00
00EF2009F900
00FF308FE200
00CF90293000
007FF3000000
000CFD000000
0002EF500000
1B207F800000
8F303F600000
7F918C100000
09EE91000000
ENDCHAR
STARTCHAR sacute
ENCODING 347
SWIDTH 423 0
DWIDTH 8 0
BBX 9 15 0 0
BITMAP
0000000300
0000005F60
000000BF50
000007F800
00003D5000
0000000000
002AEEA100
00DC16F800
03FA03F500
02FF302000
00AFC10000
001EF70000
5905FA0000
BE46F60000
3CFD600000
ENDCHAR
STARTCHAR Scircumflex
ENCODING 348
SWIDTH 474 0
DWIDTH 9 0
BBX 11 18 0 0
BITMAP
000000007400
0000001AFD00
000006DB8F70
000005400650
00004CFD7000
0007F813E600
003FA000CC00
00AF4001EC00
00EF2009F900
00FF308FE200
00CF90293000
007FF3000000
000CFD000000
0002EF500000
1B207F800000
8F303F600000
7F918C100000
09EE91000000
ENDCHAR
STARTCHAR scircumflex
ENCODING 349
SWIDTH 423 0
DWIDTH 8 0
BBX 9 14 0 0
BITMAP
0000005A00
000007FF20
0002BD7F60
002E910BB0
0000000000
002AEEA100
00DC16F800
03FA03F500
02FF302000
00AFC10000
001EF70000
5905FA0000
BE46F60000
3CFD600000
ENDCHAR
STARTCHAR Scedilla
ENCODING 350
SWIDTH 474 0
DWIDTH 9 0
BBX 10 18 0 -4
BITMAP
00005CFD70
0008F813E7
004FA000CC
00BF3001FC
00EF201BF8
00EF408FC1
00BFB01400
003FF50000
0007FE1000
0510BF6000
5F304F7000
8F505F4000
3FEBE80000
03CB300000
007D000000
01CD000000
0DF8000000
0460000000
ENDCHAR
STARTCHAR scedilla
ENCODING 351
SWIDTH 423 0
DWIDTH 8 0
BBX 8 13 0 -4
BITMAP
002AEEA1
00DC16F8
03FA03F5
02FF2020
00AFC000
001EF600
7B06FA00
BE35F600
2CFD7000
02E10000
03F40000
4DF20000
6E700000
ENDCHAR
STARTCHAR Scaron
ENCODING 352
SWIDTH 474 0
DWIDTH 9 0
BBX 12 18 0 0
BITMAP
000002620032
000004FE29F4
0000008FE930
000000051000
00004CFD7000
0007F813E600
003FA000CC00
00AF4001EC00
00EF2009F900
00FF308FE200
00CF90293000
007FF3000000
000CFD000000
0002EF500000
1B207F800000
8F303F600000
7F918C100000
09EE91000000
ENDCHAR
STARTCHAR scaron
ENCODING 353
SWIDTH 423 0
DWIDTH 8 0
BBX 10 14 0 0
BITMAP
0000A8002C
00009F24EB
00004FBE80
00001C8100
0000000000
002AEEA100
00DC16F800
03FA03F500
02FF302000
00AFC10000
001EF70000
5905FA0000
BE46F60000
3CFD600000
ENDCHAR
STARTCHAR Tcommaaccent
ENCODING 354
SWIDTH 471 0
DWIDTH 8 0
BBX 11 19 1 -5
BITMAP
08EE92000440
7FFEEF930A20
CF503FEEE900
BB009F801000
2300EF300000
0004FD000000
0009F8000000
000DF4000000
003FD0000000
008F80000000
00DF20000000
05F900000000
1DD100000000
AC3000000000
010000000000
5FB000000000
2FB000000000
4F4000000000
C50000000000
ENDCHAR
STARTCHAR tcommaaccent
ENCODING 355
SWIDTH 358 0
DWIDTH 6 0
BBX 7 16 0 -5
BITMAP
0003E700
000DF200
07FFFEB0
00CF2000
02FB0000
07F60000
0BF20000
0ED00000
1FB01300
0FE9D500
07ED6000
01100000
3FC00000
1ED00000
2F600000
A7000000
ENDCHAR
STARTCHAR Tcaron
ENCODING 356
SWIDTH 471 0
DWIDTH 8 0
BBX 11 18 1 0
BITMAP
000005500050
00000AF75DB0
000001EFC600
000000330000
1AEEC8410740
9FFDDFFFEC10
CE204F911000
3500AF400000
0001EE000000
0005FB000000
0009F6000000
000EF2000000
003FC0000000
008F60000000
00DE10000000
05F800000000
1DD100000000
AC2000000000
ENDCHAR
STARTCHAR tcaron
ENCODING 357
SWIDTH 497 0
DWIDTH 9 0
BBX 10 15 1 0
BITMAP
00000002E9
00000003FA
00000003F5
0001710AB0
000AF31700
003FC00000
0BFFFE7000
01FD000000
06F7000000
0BF2000000
0ED0000000
3F90000000
5F70210000
4FCAE10000
0AFC300000
ENDCHAR
STARTCHAR Tbar
ENCODING 358
SWIDTH 471 0
DWIDTH 8 0
BBX 11 14 1 0
BITMAP
09EEC8410740
8FFDDFFFEC10
CE304F911000
67009F500000
0000DF100000
0003FD000000
0007F9000000
8EEFFE900000
113FE1000000
006F80000000
00CF20000000
04FA00000000
1CE100000000
AC3000000000
ENDCHAR
STARTCHAR tbar
ENCODING 359
SWIDTH 358 0
DWIDTH 6 0
BBX 7 12 0 0
BITMAP
00006200
0006F700
000DF200
07FFFEB0
00CF2000
01FD0000
5EFFEE60
1BF31100
0ED00000
1FB01300
0FE9D500
07ED6000
ENDCHAR
STARTCHAR Utilde
ENCODING 360
SWIDTH 624 0
DWIDTH 11 0
BBX 13 17 0 0
BITMAP
0000007DC40920
00000783BFD600
00000000010000
0007EB00004E40
0003FF0000BF40
0004FC0004FC00
0009F7000BF600
001EF1003FF100
007FA000BFB000
00DF4003FF6000
04FC000BFF2000
0BF6004FFC0000
1FE100CBF80000
6FA007B8F40000
9F603C1BF20000
9F73B20BF33000
2DE91004EE6000
ENDCHAR
STARTCHAR utilde
ENCODING 361
SWIDTH 553 0
DWIDTH 10 0
BBX 11 14 0 0
BITMAP
000008E900A0
0000866F4590
0000B00BF900
000000001000
000000000000
00BE5001DA00
009F8008F800
00BF401EF200
02FE009FA000
09F803FF4000
1FF20CED0000
6FB098E90000
8F7884F82000
3DD601DE9000
ENDCHAR
STARTCHAR Umacron
ENCODING 362
SWIDTH 624 0
DWIDTH 11 0
BBX 13 16 0 0
BITMAP
000004DEEEE800
00000011111000
0007EB00004E40
0003FF0000BF40
0004FC0004FC00
0009F7000BF600
001EF1003FF100
007FA000BFB000
00DF4003FF6000
04FC000BFF2000
0BF6004FFC0000
1FE100CBF80000
6FA007B8F40000
9F603C1BF20000
9F73B20BF33000
2DE91004EE6000
ENDCHAR
STARTCHAR umacron
ENCODING 363
SWIDTH 553 0
DWIDTH 10 0
BBX 11 12 0 0
BITMAP
00008EEEED30
000011111100
000000000000
00BE5001DA00
009F8008F800
00BF401EF200
02FE009FA000
09F803FF4000
1FF20CED0000
6FB098E90000
8F7884F82000
3DD601DE9000
ENDCHAR
STARTCHAR Ubreve
ENCODING 364
SWIDTH 624 0
DWIDTH 11 0
BBX 13 18 0 0
BITMAP
00000016000500
0000008F218A00
0000003DFE8000
00000000100000
0007EB00004E40
0003FF0000BF40
0004FC0004FC00
0009F7000BF600
001EF1003FF100
007FA000BFB000
00DF4003FF6000
04FC000BFF2000
0BF6004FFC0000
1FE100CBF80000
6FA007B8F40000
9F603C1BF20000
9F73B20BF33000
2DE91004EE6000
ENDCHAR
STARTCHAR ubreve
ENCODING 365
SWIDTH 553 0
DWIDTH 10 0
BBX 11 14 0 0
BITMAP
00000A800470
00000ED03D20
000006EFC300
000000010000
000000000000
00BE5001DA00
009F8008F800
00BF401EF200
02FE009FA000
09F803FF4000
1FF20CED0000
6FB098E90000
8F7884F82000
3DD601DE9000
ENDCHAR
STARTCHAR Uring
ENCODING 366
SWIDTH 624 0
DWIDTH 11 0
BBX 13 18 0 0
BITMAP
00000003BD9000
0000001E96F400
0000006F14F400
0000007F2AD100
0007EB1CFC7E40
0003FF0000BF40
0004FC0004FC00
0009F7000BF600
001EF1003FF100
007FA000BFB000
00DF4003FF6000
04FC000BFF2000
0BF6004FFC0000
1FE100CCF80000
6FA007B8F40000
9F603D1BF20000
9F73B20BF33000
2DE91005EE6000
ENDCHAR
STARTCHAR uring
ENCODING 367
SWIDTH 553 0
DWIDTH 10 0
BBX 10 14 0 0
BITMAP
0000019ED6
000009D2AD
00000DA1CB
000007FFB2
0000000100
00BE5001DA
009F8008F8
00BF401EF2
02FE009FA0
09F803FF40
1FF20CED00
6FB098E900
8F7884F820
3DD601DE90
ENDCHAR
STARTCHAR Uhungarumlaut
ENCODING 368
SWIDTH 624 0
DWIDTH 11 0
BBX 13 18 0 0
BITMAP
00000001301400
00000007F05F20
0000001DA0CC00
000000B909A100
0007EB00004E40
0003FF0000BF40
0004FC0004FC00
0009F7000BF600
001EF1003FF100
007FA000BFB000
00DF4003FF6000
04FC000BFF2000
0BF6004FFC0000
1FE100CBF80000
6FA007B8F40000
9F603C1BF20000
9F73B20BF33000
2DE91004EE6000
ENDCHAR
STARTCHAR uhungarumlaut
ENCODING 369
SWIDTH 553 0
DWIDTH 10 0
BBX 11 15 0 0
BITMAP
000000210110
000000C90AB0
000005F53F80
00002EA1CB00
0000C80A9100
000000000000
00BE5001DA00
009F8008F800
00BF401EF200
02FE009FA000
09F803FF4000
1FF20CED0000
6FB098E90000
8F7884F82000
3DD601DE9000
ENDCHAR
STARTCHAR Uogonek
ENCODING 370
SWIDTH 684 0
DWIDTH 12 0
BBX 13 19 0 -5
BITMAP
0001CE50000AB0
0000AF80003FC0
0000AF5000BF50
0001FE1003FE00
0007F9000AF900
000DF3002FF400
005FC000AFE000
00BF6003FFA000
02FE000BFF5000
08F8004ECF1000
0DF301D5FD0000
1FE00973FA0000
1FE28703FB1200
07EC5000BFF300
00000001BD2000
0000000AE20000
0000003FA10000
0000002EF90000
00000000100000
ENDCHAR
STARTCHAR uogonek
ENCODING 371
SWIDTH 553 0
DWIDTH 10 0
BBX 10 14 0 -5
BITMAP
00BE5001DA
009F8008F8
00BF401EF2
02FE009FA0
09F803FF40
1FF20CED00
6FB098E900
8F7884F820
3DD602DFC0
000002DB10
00000DC000
00005F7100
00004FE700
0000010000
ENDCHAR
STARTCHAR Wcircumflex
ENCODING 372
SWIDTH 941 0
DWIDTH 17 0
BBX 17 18 1 0
BITMAP
000000000018100000
0000000003DF800000
000000019F7CF20000
000000017201730000
18DE90000000007E60
7FFEF600000000BFC0
1726F7000000006FE0
001EF30008E5004FE0
007FB001BFD1004FC0
00EF301CFF30006F90
06FB00AFFA0000AF40
0CF507FDF40000ED00
2FD03F7DF00006F700
6F71DA2FC0000DD000
9F38D13F90008F3000
BF3E304F9004F60000
9FC6001EC16E500000
2DA00005EE92000000
ENDCHAR
STARTCHAR wcircumflex
ENCODING 373
SWIDTH 750 0
DWIDTH 14 0
BBX 14 14 0 0
BITMAP
000000002A3000
00000003DF8000
0000007F8DC000
00000BC406E200
00000000000000
02DE4001302EB0
00AF700DF10DF3
009F307F900AF3
00EC01EF200AE0
05F60BFB000D90
0BF16DF7005F20
2FA5D6F601D600
5FDD23FC7D8000
2EB2009ED50000
ENDCHAR
STARTCHAR Ycircumflex
ENCODING 374
SWIDTH 580 0
DWIDTH 10 0
BBX 13 23 0 -5
BITMAP
00000000010000
000000008F3000
0000003CDFA000
000004E818E300
0008EB00004E30
0004FE0000CF20
0004FB0004FA00
000AF6000CF400
001FF1004FE000
008F9000BF9000
00EF3004FF4000
05FB000BFD0000
0BF5005FF80000
2FE000DCF30000
6F9007ACC00000
AF503C4F600000
9F64B1BE100000
3DE914F7000000
00000CD0000000
00008F40000000
0006F700000000
018F8000000000
0DD50000000000
ENDCHAR
STARTCHAR ycircumflex
ENCODING 375
SWIDTH 549 0
DWIDTH 10 0
BBX 10 20 0 -6
BITMAP
0000000780
0000009FF0
00003CC8F4
0004E801D9
0000000000
00AE6000CB
007F9006FA
00AF500DF5
01FF106FE1
08FA01EFA0
0EF309EF50
5FC06ACE00
7F86B3F900
2DE808F300
00000EB000
00007F3000
0004F90000
004EC00000
0AFA100000
0120000000
ENDCHAR
STARTCHAR Ydieresis
ENCODING 376
SWIDTH 580 0
DWIDTH 10 0
BBX 13 22 0 -5
BITMAP
000005EB05EC00
000009FE08FE00
00000283018300
0008EB00004E30
0004FE0000CF20
0004FB0004FA00
000AF6000CF400
001FF1004FE000
008F9000BF9000
00EF3004FF4000
05FB000BFD0000
0BF5005FF80000
2FE000DCF30000
6F9007ACC00000
AF503C4F600000
9F64B1BE100000
3DE914F7000000
00000CD0000000
00008F40000000
0006F700000000
018F8000000000
0DD50000000000
ENDCHAR
STARTCHAR Zacute
ENCODING 377
SWIDTH 501 0
DWIDTH 9 0
BBX 12 18 -1 0
BITMAP
000000000680
000000001EE0
00000001BE50
000000026100
000A71137CD3
0009FFFFFDFA
0002BDB73DF4
00000001CF70
0000001BF800
000000BF8000
00000AF90000
00008F900000
0006FA000000
004FA0000000
01EC10000000
0AE359CC7000
2FEFFFFFF300
1DD84103A500
ENDCHAR
STARTCHAR zacute
ENCODING 378
SWIDTH 430 0
DWIDTH 8 0
BBX 9 15 0 0
BITMAP
0000000300
0000002F90
0000008F80
000004FB10
00001D7000
0000000000
00CB77AD10
006CB9EF20
00002DF600
0003EF5000
005EE30000
05FD200000
3ED1000000
BFBDED3000
9D967B8000
ENDCHAR
STARTCHAR Zdotaccent
ENCODING 379
SWIDTH 501 0
DWIDTH 9 0
BBX 12 17 -1 0
BITMAP
0000003ED100
0000006FF200
000000185000
000A71137CD3
0009FFFFFDFA
0002BDB73DF4
00000001CF70
0000001BF800
000000BF9000
00000AF90000
00008F900000
0006FA000000
004FB0000000
01EC10000000
0AE2479A5000
2FDEFFFFF300
1DD84103A500
ENDCHAR
STARTCHAR zdotaccent
ENCODING 380
SWIDTH 430 0
DWIDTH 8 0
BBX 9 14 0 0
BITMAP
00004EC000
00008FE000
0000184000
0000000000
0000000000
00CB77AD10
006CB9EF20
00002DF600
0003EF5000
005EE30000
05FD200000
3ED1000000
BFBDED3000
9D967B8000
ENDCHAR
STARTCHAR Zcaron
ENCODING 381
SWIDTH 501 0
DWIDTH 9 0
BBX 12 18 -1 0
BITMAP
000001640014
000001CF46E9
0000003FFB50
000000042000
000A71137CD3
0009FFFFFDFA
0002BDB73DF4
00000001CF70
0000001BF800
000000BF8000
00000AF90000
00008F900000
0006FA000000
004FA0000000
01EC10000000
0AE359CC7000
2FEFFFFFF300
1DD84103A500
ENDCHAR
STARTCHAR zcaron
ENCODING 382
SWIDTH 430 0
DWIDTH 8 0
BBX 10 14 0 0
BITMAP
0004B30077
0001FA19F4
0000BDDC30
00006B4000
0000000000
00CB77AD10
006CB9EF20
00002DF600
0003EF5000
005EE30000
05FD200000
3ED1000000
BFBDED3000
9D967B8000
ENDCHAR
STARTCHAR florin
ENCODING 402
SWIDTH 466 0
DWIDTH 8 0
BBX 15 19 -4 -5
BITMAP
00000000003BD800
0000000002EB3C50
000000000CD11E80
000000005F51CF40
00000000CE02C800
00000003F9000000
0000001AFFE70000
000005EFFEDA0000
0000038FB0000000
0000007F70000000
000000BF30000000
000000FE00000000
000004FA00000000
000008F600000000
00000CF100000000
00002FA000000000
1C409F3000000000
5F85FA0000000000
09EE910000000000
ENDCHAR
STARTCHAR AEacute
ENCODING 508
SWIDTH 878 0
DWIDTH 16 0
BBX 20 18 -2 0
BITMAP
000000000000001A3000
000000000000007F7000
00000000000005FB1000
00000000000006400000
00000000006DFBBEFD50
0000000009D4DFE615F1
000000008D18FE3008F2
00000005F40EF6008FC0
0000001E903FD007FE30
0000009E104FA0017200
000004F6001EB0000000
00001DFBEFFFFDE40000
0005EFDDDDDFFE820000
0003FB0000AFB1000000
000BF20005FD10000000
005F800009F7001B6000
03EC000006FB24DE3000
2EB10000007DFD920000
ENDCHAR
STARTCHAR aeacute
ENCODING 509
SWIDTH 770 0
DWIDTH 14 0
BBX 14 15 0 0
BITMAP
00000000030000
000000002F9000
000000008F8000
00000004FB0000
0000001D700000
00000000000000
00029ED6DBDFB1
003EC35FFC29F7
01ED103FF209F8
09F5008F903EF4
1FE001EF46EF80
4FA007FFED9300
5F902EFF100010
2FB2C5AF714C70
07EC4019EFD810
ENDCHAR
STARTCHAR Scommaaccent
ENCODING 536
SWIDTH 474 0
DWIDTH 9 0
BBX 10 19 0 -5
BITMAP
00004CFD70
0007F813E6
003FA000CC
00AF4001EC
00EF2009F9
00FF308FE2
00CF902930
007FF30000
000CFD0000
0002EF5000
1B207F8000
8F303F6000
7F918C1000
09EE910000
0011000000
03FC000000
01EC000000
02F5000000
0B60000000
ENDCHAR
STARTCHAR scommaaccent
ENCODING 537
SWIDTH 423 0
DWIDTH 8 0
BBX 8 14 0 -5
BITMAP
002AEEA1
00DC16F8
03FA03F5
02FF3020
00AFC100
001EF700
5905FA00
BE46F600
3CFD6000
00100000
0CF30000
09F30000
0CB00000
6A100000
ENDCHAR
STARTCHAR dotlessj
ENCODING 567
SWIDTH 277 0
DWIDTH 5 0
BBX 8 14 -3 -5
BITMAP
00002DE3
00000DF4
00000DF2
00000FE0
00003FA0
00008F60
0000DF10
0002FB00
0009F500
001ED000
008F5000
02EA0000
2DC10000
D9100000
ENDCHAR
STARTCHAR circumflex
ENCODING 710
SWIDTH 354 0
DWIDTH 6 0
BBX 7 4 0 10
BITMAP
0001A400
002DFA00
06E9CE00
9D505E40
ENDCHAR
STARTCHAR caron
ENCODING 711
SWIDTH 381 0
DWIDTH 7 0
BBX 7 4 0 10
BITMAP
1C6006A0
0BE1AE50
07FE9200
01720000
ENDCHAR
STARTCHAR breve
ENCODING 728
SWIDTH 344 0
DWIDTH 6 0
BBX 7 4 0 10
BITMAP
1C400830
2F906C00
09FEA100
00100000
ENDCHAR
STARTCHAR dotaccent
ENCODING 729
SWIDTH 217 0
DWIDTH 4 0
BBX 3 3 1 11
BITMAP
6EA0
BFC0
2820
ENDCHAR
STARTCHAR ring
ENCODING 730
SWIDTH 402 0
DWIDTH 7 0
BBX 6 6 2 8
BITMAP
04DE90
3F66F2
8E05F3
9E1BD0
2DFC20
001000
ENDCHAR
STARTCHAR ogonek
ENCODING 731
SWIDTH 311 0
DWIDTH 6 0
BBX 6 7 0 -5
BITMAP
000051
002D60
02E700
0CD000
2FA200
1EF900
001000
ENDCHAR
STARTCHAR tilde
ENCODING 732
SWIDTH 397 0
DWIDTH 7 0
BBX 7 3 1 11
BITMAP
2AEB22B0
B43DFB30
00001000
ENDCHAR
STARTCHAR hungarumlaut
ENCODING 733
SWIDTH 392 0
DWIDTH 7 0
BBX 8 5 0 10
BITMAP
00020030
006F13F3
00DC0BE1
09E26F40
6B23C400
ENDCHAR
STARTCHAR pi
ENCODING 960
SWIDTH 640 0
DWIDTH 12 0
BBX 13 9 -1 0
BITMAP
003BEFFFFFFF80
00422F649FA400
00007D00BF2000
0000E801FC0000
0006F305F80000
001EC009F40000
00BF500BF10000
1BFC000BFA7000
1DC20005EC2000
ENDCHAR
STARTCHAR uni1E02
ENCODING 7682
SWIDTH 551 0
DWIDTH 10 0
BBX 11 17 0 0
BITMAP
0000004EC000
0000008FE000
000000183000
0028BEFEB500
05FF93129F40
0184A4002FA0
0009FA003FC0
003FF2008F80
00AF9005FD10
01FE13AFD200
07FFFFFB1000
0BF732AF5000
0ED0002FB000
1F90004F9000
2F7000CF4000
0EB25CF60000
05DFD9200000
ENDCHAR
STARTCHAR uni1E03
ENCODING 7683
SWIDTH 525 0
DWIDTH 9 0
BBX 10 15 0 0
BITMAP
0003E40000
0006F706EA
000AF40AFD
000DE00283
003FA00000
007F500000
00CE3BEC10
02FBD46F80
06FF404FC0
0BF8006FB0
1FE100AF80
3F9001EF20
4F500AF800
1E94AF9000
04DEB50000
ENDCHAR
STARTCHAR uni1E0A
ENCODING 7690
SWIDTH 630 0
DWIDTH 11 0
BBX 12 17 0 0
BITMAP
0000001CE300
0000003FF500
000000076000
005ADEFDA300
01EF83129F70
002245000AF3
0003FE1005F8
000BF70005FA
003FE10006F9
009F80000AF6
01EF20001FF1
05FC00009F90
0AF60004FE10
0EF2002EF400
1FD003EF5000
1FB28FD30000
05DEC6000000
ENDCHAR
STARTCHAR uni1E0B
ENCODING 7691
SWIDTH 557 0
DWIDTH 10 0
BBX 12 15 0 0
BITMAP
0000000002D8
0005EB0009F5
0009FE000EE0
000283005F90
00000000AF40
00000000EE00
00018DE9FA00
001CD42EF500
00CE300EF100
07F8004FB000
0DF200AF7000
2FD003FF3000
3FB00CFE0000
1FD1ABDD1200
07ED807ED300
ENDCHAR
STARTCHAR uni1E1E
ENCODING 7710
SWIDTH 518 0
DWIDTH 9 0
BBX 12 17 0 0
BITMAP
0000000AE600
0000000FF800
000000058100
02BEEC9633A1
0CFFDEFFFFC0
0EC108F44400
05401FC00000
00007F700000
0000CF300000
0002FFCC5000
006EFFFFC000
006EF5100000
003FD0000000
009F70000000
02FD10000000
0BF400000000
5E5000000000
ENDCHAR
STARTCHAR uni1E1F
ENCODING 7711
SWIDTH 393 0
DWIDTH 7 0
BBX 11 21 -1 -3
BITMAP
0000006D8000
000000BFC000
0000003A3000
0000003CEB10
000002EB1F80
000009F33F90
00001FD0CF50
00005F805700
0000AF400000
0000EF100000
006DFFDD6000
009CF6211000
000DF1000000
003FB0000000
007F70000000
00CF20000000
02FC00000000
08F700000000
0EF100000000
4F7000000000
010000000000
ENDCHAR
STARTCHAR uni1E40
ENCODING 7744
SWIDTH 931 0
DWIDTH 17 0
BBX 19 17 -2 0
BITMAP
00000000000001CE4000
00000000000002FF6000
00000000000000670000
0000000006DE20007EA0
000000008EEF1009EFA0
00000006E5FB006E9F50
0000003F68F602E7CF10
000000CC0DF10AC3FB00
000006F43FC03F48F600
00000DA07F80AB0DF200
00007F30AF42F32FD000
0001EA00DF29A06F9000
0008F200FE2F30AF5000
002F9001FC9A00DF2000
00CE1001FCE200EF0000
09F50001FF8000CF2300
AE700000AB00004DE800
ENDCHAR
STARTCHAR uni1E41
ENCODING 7745
SWIDTH 814 0
DWIDTH 15 0
BBX 14 14 0 0
BITMAP
00000001CE3000
00000003FF4000
00000000760000
00000000000000
00000000000000
00CE407EA01AE7
00AF68FEF1CEFE
00BF7E47D9A2FC
01FDE30CDC18F5
06FF404FE21ED0
0CF600CF507F60
4FC004FB00BF10
BF400BF300CF96
BB000BB0005EC2
ENDCHAR
STARTCHAR uni1E56
ENCODING 7766
SWIDTH 553 0
DWIDTH 10 0
BBX 13 17 -1 0
BITMAP
000000006EA000
00000000AFD000
00000000283000
00005ADFEB5000
000BFE7217F700
001FD20000CF10
00031BB000CF20
00005FB001FE00
0000BF500AF900
0002FE009FD100
0008FA6DFB1000
000DFFDA400000
004FC000000000
00BF5000000000
03FC0000000000
1DE20000000000
7D300000000000
ENDCHAR
STARTCHAR uni1E57
ENCODING 7767
SWIDTH 550 0
DWIDTH 10 0
BBX 12 19 -2 -5
BITMAP
00000008F800
0000000DFA00
000000038100
000000000000
000000000000
0004EC08EE60
0001EEBA1DE1
0001FFB00BF3
0004FE100DF2
0008F7002FE0
000CF1009F70
001FD004FC00
005FF46ED200
009F7ED81000
00EC00000000
04F800000000
09F300000000
1ED000000000
2E6000000000
ENDCHAR
STARTCHAR uni1E60
ENCODING 7776
SWIDTH 474 0
DWIDTH 9 0
BBX 10 17 0 0
BITMAP
0000007EA0
000000BFC0
0000003820
00004CFD70
0007F813E6
003FA000CC
00AF4001EC
00EF2009F9
00FF308FE2
00CF902930
007FF30000
000CFD0000
0002EF5000
1B207F8000
8F303F6000
7F918C1000
09EE910000
ENDCHAR
STARTCHAR uni1E61
ENCODING 7777
SWIDTH 423 0
DWIDTH 8 0
BBX 8 14 0 0
BITMAP
00000BE5
00001FF6
00000570
00000000
00000000
002AEEA1
00DC16F8
03FA03F5
02FF3020
00AFC100
001EF700
5905FA00
BE46F600
3CFD6000
ENDCHAR
STARTCHAR uni1E6A
ENCODING 7786
SWIDTH 430 0
DWIDTH 8 0
BBX 11 17 0 0
BITMAP
0000006EA000
000000AFC000
000000282000
04CFDA7301A0
1FFEDEFFFE60
3F900BF31000
07102FD00000
00007F800000
0000BF400000
0001FE000000
0005FA000000
000AF5000000
000EE1000000
005F90000000
00BF20000000
06F700000000
2E8000000000
ENDCHAR
STARTCHAR uni1E6B
ENCODING 7787
SWIDTH 358 0
DWIDTH 6 0
BBX 7 14 1 0
BITMAP
0002DE20
0004FF30
0002B500
001DE000
007F8000
2DFFFD40
06F80000
0AF30000
0FD00000
4F800000
7F500000
9F204000
8FBBC000
2DEA1000
ENDCHAR
STARTCHAR Wgrave
ENCODING 7808
SWIDTH 941 0
DWIDTH 17 0
BBX 17 18 1 0
BITMAP
000000000610000000
000000005F80000000
000000001DF4000000
000000000055000000
18DE90000000007E60
7FFEF600000000BFC0
1626F7000000006FE0
001EF20009E5004FE0
007FA001CFC1005FC0
00EF301CFF20006F90
06FA00BFF90000AF40
0CF309FCF40001FD00
2FC05F5EE00007F700
6F61E82FB0001ED000
9F2AC03F9000AF3000
BF5E203F9008F60000
9FE6001ED5AE500000
2DA00005DE92000000
ENDCHAR
STARTCHAR wgrave
ENCODING 7809
SWIDTH 750 0
DWIDTH 14 0
BBX 14 14 0 0
BITMAP
0000001CA00000
0000003FB00000
0000001EC00000
00000004E10000
00000000200000
02DE4001302EB0
00AF700DF10DF3
009F307F900AF3
00EC01EF200AE0
05F60BFB000D90
0BF16DF7005F20
2FA5D6F601D600
5FDD23FC7D8000
2EB2009ED50000
ENDCHAR
STARTCHAR Wacute
ENCODING 7810
SWIDTH 941 0
DWIDTH 17 0
BBX 17 18 1 0
BITMAP
000000000003A10000
00000000000AF40000
00000000007F800000
000000000073000000
18DE90000000007E60
7FFEF600000000BFC0
1726F7000000006FE0
001EF30008E5004FE0
007FB001BFD1004FC0
00EF301CFF30006F90
06FB00AFFA0000AF40
0CF507FDF40000ED00
2FD03F7DF00006F700
6F71DA2FC0000DD000
9F38D13F90008F3000
BF3E304F9004F60000
9FC6001EC16E500000
2DA00005EE92000000
ENDCHAR
STARTCHAR wacute
ENCODING 7811
SWIDTH 750 0
DWIDTH 14 0
BBX 14 15 0 0
BITMAP
00000000030000
000000005F5000
00000000CF4000
00000007F80000
0000004D500000
00000000000000
02DE4001302EB0
00AF700DF10DF3
009F307F900AF3
00EC01EF200AE0
05F60BFB000D90
0BF16DF7005F20
2FA5D6F601D600
5FDD23FC7D8000
2EB2009ED50000
ENDCHAR
STARTCHAR Wdieresis
ENCODING 7812
SWIDTH 941 0
DWIDTH 17 0
BBX 17 17 1 0
BITMAP
00000003ED13ED1000
00000007FF16FF2000
000000018401850000
18DE90000000007E60
7FFEF600000000BFC0
1626F7000000006FE0
001EF20009E5004FE0
007FA001CFC1005FC0
00EF301CFF20006F90
06FA00BFF90000AF40
0CF309FCF40001FD00
2FC05F5EE00007F700
6F61E82FB0001ED000
9F2AC03F9000AF3000
BF5E203F9008F60000
9FE6001ED5AE500000
2DA00005DE92000000
ENDCHAR
STARTCHAR wdieresis
ENCODING 7813
SWIDTH 750 0
DWIDTH 14 0
BBX 14 14 0 0
BITMAP
000006EA06EA00
00000BFC0AFD00
00000282028300
00000000000000
00000000000000
02DE4001302EB0
00AF700DF10DF3
009F307F900AF3
00EC01EF200AE0
05F60BFB000D90
0BF16DF7005F20
2FA5D6F601D600
5FDD23FC7D8000
2EB2009ED50000
ENDCHAR
STARTCHAR Ygrave
ENCODING 7922
SWIDTH 580 0
DWIDTH 10 0
BBX 13 23 0 -5
BITMAP
00000006000000
0000008F500000
0000005FC00000
00000006D70000
0008EB00004E30
0004FE0000CF20
0004FB0004FA00
000AF6000CF400
001FF1004FE000
008F9000BF9000
00EF3004FF4000
05FB000BFD0000
0BF5005FF80000
2FE000DCF30000
6F9007ACC00000
AF503C4F600000
9F64B1BE100000
3DE914F7000000
00000CD0000000
00008F40000000
0006F700000000
018F8000000000
0DD50000000000
ENDCHAR
STARTCHAR ygrave
ENCODING 7923
SWIDTH 549 0
DWIDTH 10 0
BBX 10 20 0 -6
BITMAP
000007E200
00000CF200
000008F300
000001C700
0000001200
00AE6000CB
007F9006FA
00AF500DF5
01FF106FE1
08FA01EFA0
0EF309EF50
5FC06ACE00
7F86B3F900
2DE808F300
00000EB000
00007F3000
0004F90000
004EC00000
0AFA100000
0120000000
ENDCHAR
STARTCHAR endash
ENCODING 8211
SWIDTH 751 0
DWIDTH 14 0
BBX 12 2 1 4
BITMAP
3DEEEEEEEED2
011111111110
ENDCHAR
STARTCHAR emdash
ENCODING 8212
SWIDTH 1066 0
DWIDTH 19 0
BBX 17 2 1 4
BITMAP
2DEEEEEEEEEEEEEEB0
011111111111111100
ENDCHAR
STARTCHAR quoteleft
ENCODING 8216
SWIDTH 268 0
DWIDTH 5 0
BBX 4 5 2 10
BITMAP
0053
08D1
4F60
7F80
4E80
ENDCHAR
STARTCHAR quoteright
ENCODING 8217
SWIDTH 268 0
DWIDTH 5 0
BBX 4 5 2 10
BITMAP
0272
08F9
03F9
06F3
3C40
ENDCHAR
STARTCHAR quotesinglbase
ENCODING 8218
SWIDTH 268 0
DWIDTH 5 0
BBX 4 5 0 -2
BITMAP
0550
1FF1
0BF1
1D90
A900
ENDCHAR
STARTCHAR quotedblleft
ENCODING 8220
SWIDTH 485 0
DWIDTH 9 0
BBX 8 5 2 10
BITMAP
00260053
04E40AB1
1E908F10
6F90DF20
4E90AD30
ENDCHAR
STARTCHAR quotedblright
ENCODING 8221
SWIDTH 480 0
DWIDTH 9 0
BBX 8 5 2 10
BITMAP
00550271
03FF0AF7
00ED07F6
04F50BC0
2C408A10
ENDCHAR
STARTCHAR quotedblbase
ENCODING 8222
SWIDTH 463 0
DWIDTH 8 0
BBX 7 5 0 -2
BITMAP
05502720
1FF18F90
0BF13F90
1D906E20
A903D400
ENDCHAR
STARTCHAR dagger
ENCODING 8224
SWIDTH 488 0
DWIDTH 9 0
BBX 8 14 1 0
BITMAP
0000AD20
0000EF50
0003FF20
1AABFFBD
048EFC93
000EF300
003FD000
007F8000
00BF2000
01FB0000
05F50000
0AC00000
1F400000
59000000
ENDCHAR
STARTCHAR daggerdbl
ENCODING 8225
SWIDTH 488 0
DWIDTH 9 0
BBX 8 14 1 0
BITMAP
0000AD20
0000FF40
0003FF10
1CBCFFDE
036DFB62
000EF300
003FC000
238FA630
7DFFFC30
02FA0000
06F30000
0BC00000
1F400000
58000000
ENDCHAR
STARTCHAR bullet
ENCODING 8226
SWIDTH 437 0
DWIDTH 8 0
BBX 5 5 2 3
BITMAP
3CFA00
DFFF40
EFFF30
7FF800
022000
ENDCHAR
STARTCHAR ellipsis
ENCODING 8230
SWIDTH 810 0
DWIDTH 15 0
BBX 13 3 0 0
BITMAP
4ED206EC108FA0
8FF30AFF10CFE0
19700295003A40
ENDCHAR
STARTCHAR perthousand
ENCODING 8240
SWIDTH 1184 0
DWIDTH 21 0
BBX 19 14 1 0
BITMAP
008ED40003D400000000
09F4BD001DB000000000
3FA0AF109F2000000000
8F40CF14F70000000000
9F12FB1DC00000000000
7F2AF38F300000000000
1BFE53F8000000000000
00100CD0000000000000
00007F406DE9001AED40
0002F907F66F41DD2CD0
000BD11FC06F67F60CF0
006F404F70BF3AF12FC0
02E9003F75FA09F2BF40
09A00008EE8002CFC400
ENDCHAR
STARTCHAR guilsinglleft
ENCODING 8249
SWIDTH 413 0
DWIDTH 7 0
BBX 6 7 1 2
BITMAP
000187
005DB1
2BF800
AF6000
2ED200
03ED10
003E70
ENDCHAR
STARTCHAR guilsinglright
ENCODING 8250
SWIDTH 416 0
DWIDTH 8 0
BBX 6 7 1 2
BITMAP
0DB000
05FB00
007FA0
000CF4
01BF70
3EB200
B50000
ENDCHAR
STARTCHAR fraction
ENCODING 8260
SWIDTH 580 0
DWIDTH 10 0
BBX 10 15 0 0
BITMAP
0000000017
00000000CD
00000007F4
0000001EA0
0000009E20
000003F700
00000CD000
00006F4000
0001EA0000
0009F20000
003F800000
00BD000000
05F5000000
1DB0000000
5D20000000
ENDCHAR
STARTCHAR Euro
ENCODING 8364
SWIDTH 622 0
DWIDTH 11 0
BBX 11 14 1 0
BITMAP
0000005CEC20
00000AF819C0
0000AF600BE0
0007FA006FC0
002FF101FF40
009F90006500
1CFFEEB20000
05FC10000000
07F900000000
AEFFEC400000
0AF810000000
07F900032000
02EE317F5000
003BEEC60000
ENDCHAR
STARTCHAR trademark
ENCODING 8482
SWIDTH 1084 0
DWIDTH 20 0
BBX 15 8 3 6
BITMAP
49A9866049202940
CBDFCC74FF41EF70
00CB000CBF1AAF50
03F5005D8E3D7F20
09F100C69CA69F00
0CC006E1AED0BE00
0BD12E609F50AF10
0282450026002820
ENDCHAR
STARTCHAR Omega
ENCODING 8486
SWIDTH 839 0
DWIDTH 15 0
BBX 15 14 0 0
BITMAP
0000058A85000000
0003DE968DE50000
003ED20001BF6000
00DF3000002FE200
05FC00000009F800
08F800000006FB00
0AF800000005FD00
08F900000006FC00
05FC00000009F800
00EF2000001EF200
006FA000007F8000
0108F40002EA0100
1E95AD100BC48E30
0BFFFF906FFFFD10
ENDCHAR
STARTCHAR partialdiff
ENCODING 8706
SWIDTH 580 0
DWIDTH 10 0
BBX 11 16 0 -1
BITMAP
000001684000
00003ED9E700
0000AF307E10
00006C005F40
000001105F40
0004CFFB9F30
006FE509FF20
03FF4004FD00
0BF90008F900
2FF2000EF400
5FC0006FC000
7F8001EF4000
6F700AF90000
2FA29FA00000
06EFD6000000
000100000000
ENDCHAR
STARTCHAR Delta
ENCODING 8710
SWIDTH 663 0
DWIDTH 12 0
BBX 12 11 0 0
BITMAP
000003B10000
00001EF80000
00008CDE1000
0001E46F7000
0009B01ED000
002F3008F600
00A90001FC00
04F200009F50
0C8000002FC0
5E1000000AF3
AFFFFFFFFFE3
ENDCHAR
STARTCHAR product
ENCODING 8719
SWIDTH 667 0
DWIDTH 12 0
BBX 10 16 1 -2
BITMAP
06AAAAAAA6
8F844446FB
9F500004FB
9F500004FB
9F500004FB
9F500004FB
9F500004FB
9F500004FB
9F500004FB
9F500004FB
9F500004FB
9F500004FB
9F500004FB
9F500004FB
AF400004FA
4600000171
ENDCHAR
STARTCHAR summation
ENCODING 8721
SWIDTH 677 0
DWIDTH 12 0
BBX 12 16 0 -2
BITMAP
007AAAAAAAA1
04FF87777750
01EF80000000
007FF3000000
000CFD100000
0002EF900000
00005FF50000
00000AFB0000
000008F50000
00006F800000
0004FA000000
002EC1000000
01DE20000000
0BF400000000
4FFFFFFFFF70
1AAAAAAAA920
ENDCHAR
STARTCHAR minus
ENCODING 8722
SWIDTH 617 0
DWIDTH 11 0
BBX 9 2 1 6
BITMAP
1444444430
BFFFFFFFC0
ENDCHAR
STARTCHAR radical
ENCODING 8730
SWIDTH 709 0
DWIDTH 13 0
BBX 15 18 0 0
BITMAP
0000000000000100
0000000000002E20
0000000000009F20
000000000002FD00
000000000009F600
00000000002FD000
0000000000AF4000
0000000002FB0000
000000000AF20000
009C30003F800000
09FF9000AE100000
4B5FC003F6000000
000DF00AC0000000
000AF33F40000000
0006F6AA00000000
0003FBF200000000
0000EF8000000000
0000AD1000000000
ENDCHAR
STARTCHAR infinity
ENCODING 8734
SWIDTH 681 0
DWIDTH 12 0
BBX 11 7 1 3
BITMAP
014200033000
3EFF83DFFD10
CD45DFF72C80
F501DF700C90
D95DFDC6AF50
3DFE71AFF800
001000011000
ENDCHAR
STARTCHAR integral
ENCODING 8747
SWIDTH 583 0
DWIDTH 11 0
BBX 15 21 -2 -4
BITMAP
00000000002AD900
0000000001DE6B60
0000000009F50C90
000000002FC08F60
000000009F50BC10
00000001EE000000
00000005F9000000
0000000AF5000000
0000000EF1000000
0000004FB0000000
0000008F60000000
000000DF20000000
000002FD00000000
000007F800000000
00000BF300000000
02302FD000000000
1EF17F6000000000
7F61EE1000000000
7C09F60000000000
2ECF900000000000
0274000000000000
ENDCHAR
STARTCHAR approxequal
ENCODING 8776
SWIDTH 671 0
DWIDTH 12 0
BBX 11 9 1 2
BITMAP
000210000000
01BFFA000A40
0CC8EFA27E10
5C004FFFE400
220002872000
03CEA1002800
4FBEFD11B800
C702DFEEC100
80002AB71000
ENDCHAR
STARTCHAR notequal
ENCODING 8800
SWIDTH 617 0
DWIDTH 11 0
BBX 10 12 1 1
BITMAP
0000000250
0000003E70
000000CC00
011117F410
5FFFFFFFF4
1333CE3320
0004F50000
388DE88881
6BEFBBBB90
02E8000000
0BC0000000
5D20000000
ENDCHAR
STARTCHAR lessequal
ENCODING 8804
SWIDTH 704 0
DWIDTH 13 0
BBX 9 12 1 0
BITMAP
00000017D0
000006DD50
0004CF8100
03BFA20000
9FD4000000
6EE7000000
018FD40000
0002AFB200
000003BF80
0000000470
1444444440
AFFFFFFFD0
ENDCHAR
STARTCHAR greaterequal
ENCODING 8805
SWIDTH 617 0
DWIDTH 11 0
BBX 10 12 1 0
BITMAP
BC40000000
19FB300000
003CF92000
00005DE810
000001BFD1
00002AFC40
0007ED5000
05DE700000
9F81000000
6200000000
2444444430
DFFFFFFFB0
ENDCHAR
STARTCHAR lozenge
ENCODING 9674
SWIDTH 580 0
DWIDTH 10 0
BBX 10 15 0 -1
BITMAP
0000480000
0001EF4000
0008EDD000
003F54F700
00BB00AE20
05F2002EA0
0D800007F4
2F700001F6
09E20009D1
01EA003F50
006F30CB00
000CC7F200
0003FF8000
00009D1000
0000010000
ENDCHAR
STARTCHAR commaaccent
ENCODING 63171
SWIDTH 250 0
DWIDTH 5 0
BBX 4 5 0 -5
BITMAP
0020
08F7
04F7
09C1
2810
ENDCHAR
STARTCHAR ff
ENCODING 64256
SWIDTH 773 0
DWIDTH 14 0
BBX 18 18 -1 -3
BITMAP
0000003BDA1003CD90
000001EC3F802EA5F6
000009F42F90AF24F7
00001ED0CF61FB0DF4
00005F906805F70760
00009F400009F30000
0000EF10000DE00000
006BFEBCDDEFFEC300
03BDF84322BF311000
000DF10000ED000000
002FB00004F9000000
007F700009F5000000
00CF20000EF1000000
02FC00004FA0000000
07F700009F50000000
0DF10001FD00000000
4F700006F500000000
010000001000000000
ENDCHAR
STARTCHAR fi
ENCODING 64257
SWIDTH 623 0
DWIDTH 11 0
BBX 13 18 -1 -3
BITMAP
00000003ADC600
0000005FB35F50
000002EB001FA0
00000BF3006F90
00003FA000DF40
00009F50002300
0004EFCDEFF700
01CFFB4218F800
017BF4000AF400
000DF1001EE000
002FB0006F8000
006F7000CF2000
00BF2002FC0000
01FD0003FA0000
06F80000BEA000
0CF20000000000
4FA00000000000
27100000000000
ENDCHAR
STARTCHAR fl
ENCODING 64258
SWIDTH 637 0
DWIDTH 11 0
BBX 13 18 -1 -3
BITMAP
00000004BDD910
0000005FB34FB0
000002EC000ED0
00000AF4001FB0
00002FC0005F80
00007F60009F40
0000CF1000EE00
0003FFED34FA00
00BFFEDD5AF500
006CF3001EE100
000EE0005FA000
004FA000AF5000
009F5000EF1000
00EE0000EE1200
05F900007EC200
0BF30000000000
4FB00000000000
27100000000000
ENDCHAR
STARTCHAR .notdef
ENCODING -1
SWIDTH 896 0
DWIDTH 16 0
BBX 17 17 1 -1
BITMAP
00006CDDDDDDDDDC60
0001EFFFFFFFFFFF90
0006FFFFFFFFFFFF50
000BFFFDFFFDDFFF10
001FFF51FF703EFB00
004FFE01F608FFF700
009FFF0090AFFFF200
00DFFF300AFFFFD000
02FFFF705FFFFF9000
07FFFF403FFFFF4000
0BFFF6230CFFFE0000
1FFE51DA014BFB0000
5FFA2CFF726FF60000
9FFFFFFFFFFFF10000
EFFFFFFFFFFFB00000
DFFFFFFFFFFF400000
022222222221000000
ENDCHAR
ENDFONT
